<?xml version="1.0" encoding="UTF-8" standalone="no"?>
<!DOCTYPE svg PUBLIC "-//W3C//DTD SVG 1.1//EN" "http://www.w3.org/Graphics/SVG/1.1/DTD/svg11.dtd">
<svg width="100%" height="100%" viewBox="0 0 20 13" version="1.1" xmlns="http://www.w3.org/2000/svg" xmlns:xlink="http://www.w3.org/1999/xlink" xml:space="preserve" style="fill-rule:evenodd;clip-rule:evenodd;stroke-linejoin:round;stroke-miterlimit:1.41421;">
    <g transform="matrix(0.891067,-2.37802e-18,-2.37802e-18,0.900776,-0.236133,0.0020837)">
        <path style="fill:#000000;" d="M0.511,8.101C1.679,10.009 3.25,11.558 5.225,12.703C7.2,13.87 9.288,14.453 11.487,14.453C13.687,14.453 15.775,13.87 17.75,12.725C19.725,11.558 21.296,10.031 22.463,8.101C22.62,7.809 22.71,7.517 22.71,7.248C22.71,6.956 22.62,6.665 22.463,6.373C21.296,4.465 19.725,2.916 17.75,1.771C15.775,0.604 13.687,0.021 11.487,0.021C9.288,0.021 7.2,0.604 5.225,1.771C3.25,2.916 1.679,4.465 0.511,6.373C0.354,6.665 0.265,6.956 0.265,7.248C0.265,7.517 0.354,7.809 0.511,8.101ZM6.639,2.804C6.123,3.679 5.876,4.622 5.876,5.632C5.876,7.181 6.415,8.505 7.514,9.605C8.614,10.705 9.939,11.244 11.487,11.244C13.036,11.244 14.36,10.705 15.438,9.605C16.538,8.505 17.099,7.181 17.099,5.632C17.099,4.622 16.829,3.679 16.336,2.804C18.244,3.792 19.837,5.273 21.094,7.248C19.994,8.954 18.603,10.323 16.919,11.333C15.258,12.343 13.44,12.86 11.487,12.86C9.535,12.86 7.717,12.343 6.033,11.333C4.372,10.323 2.98,8.954 1.858,7.248C3.138,5.273 4.731,3.792 6.639,2.804ZM8.794,2.939C9.535,2.198 10.432,1.816 11.487,1.816C11.645,1.816 11.779,1.884 11.914,1.996C12.026,2.108 12.071,2.243 12.071,2.422C12.071,2.579 12.026,2.737 11.914,2.849C11.779,2.961 11.645,3.028 11.487,3.028C10.769,3.028 10.141,3.275 9.647,3.792C9.131,4.308 8.884,4.914 8.884,5.632C8.884,5.812 8.816,5.946 8.704,6.059C8.592,6.171 8.435,6.238 8.278,6.238C8.098,6.238 7.964,6.171 7.851,6.059C7.739,5.946 7.672,5.812 7.672,5.632C7.672,4.577 8.053,3.679 8.794,2.939Z" />
    </g>
</svg>
