<?xml version="1.0" standalone="no"?>
<!DOCTYPE svg PUBLIC "-//W3C//DTD SVG 1.1//EN" "http://www.w3.org/Graphics/SVG/1.1/DTD/svg11.dtd">
<svg width="100%" height="100%" viewBox="0 0 20 20" version="1.1" xmlns="http://www.w3.org/2000/svg" xmlns:xlink="http://www.w3.org/1999/xlink" xml:space="preserve" style="fill-rule:evenodd;clip-rule:evenodd;stroke-linejoin:round;stroke-miterlimit:1.41421;">
    <g transform="matrix(1,0,0,1,3,2)">
        <path style="fill:#ffffff;" d="M0.216,15.47C0.353,15.678 0.549,15.811 0.784,15.905C0.942,15.962 1.098,16 1.255,16C1.608,16 1.902,15.887 2.177,15.659L7,11.166L11.824,15.659C12.079,15.867 12.393,15.981 12.746,15.981C12.922,15.981 13.079,15.962 13.216,15.905C13.451,15.811 13.647,15.659 13.785,15.47C13.922,15.28 14,15.052 14,14.825L14,1.176C14,0.948 13.922,0.72 13.785,0.531C13.647,0.323 13.451,0.19 13.216,0.095C13.059,0.038 12.902,0 12.725,0L1.275,0C1.098,0 0.942,0.038 0.784,0.095C0.549,0.19 0.353,0.323 0.216,0.531C0.079,0.72 0,0.948 0,1.176L0,14.825C0,15.052 0.079,15.28 0.216,15.47Z" />
    </g>
</svg>
