<?xml version="1.0" encoding="UTF-8" standalone="no"?>
<!DOCTYPE svg PUBLIC "-//W3C//DTD SVG 1.1//EN" "http://www.w3.org/Graphics/SVG/1.1/DTD/svg11.dtd">
<svg width="100%" height="100%" viewBox="0 0 20 18" version="1.1" xmlns="http://www.w3.org/2000/svg" xmlns:xlink="http://www.w3.org/1999/xlink" xml:space="preserve" style="fill-rule:evenodd;clip-rule:evenodd;stroke-linejoin:round;stroke-miterlimit:1.41421;">
    <g id="ic-share" transform="matrix(0.891067,-4.97434e-32,-4.62223e-32,0.899011,-0.234351,-0.367696)">
        <path style="fill:#2475ff" d="M1.856,19.263C1.879,19.331 1.924,19.421 1.991,19.578C2.058,19.712 2.103,19.825 2.148,19.937C2.216,20.049 2.26,20.139 2.328,20.229C2.418,20.363 2.53,20.431 2.664,20.431C2.799,20.431 2.889,20.386 2.956,20.296C3.023,20.229 3.068,20.116 3.068,19.982C3.068,19.914 3.068,19.802 3.046,19.667C3.023,19.51 3.001,19.421 3.001,19.376C2.956,18.792 2.934,18.298 2.934,17.827C2.934,16.996 3.023,16.233 3.158,15.56C3.315,14.887 3.517,14.325 3.764,13.832C4.034,13.338 4.37,12.934 4.774,12.575C5.178,12.216 5.627,11.924 6.099,11.699C6.57,11.475 7.131,11.295 7.76,11.161C8.388,11.048 9.039,10.959 9.69,10.891C10.341,10.846 11.059,10.824 11.89,10.824L14.695,10.824L14.695,14.011C14.695,14.236 14.763,14.415 14.92,14.572C15.099,14.729 15.279,14.819 15.503,14.819C15.705,14.819 15.907,14.729 16.065,14.572L22.462,8.175C22.619,8.018 22.708,7.839 22.708,7.614C22.708,7.39 22.619,7.21 22.462,7.053L16.065,0.656C15.907,0.499 15.705,0.409 15.503,0.409C15.279,0.409 15.099,0.499 14.92,0.656C14.763,0.813 14.695,0.993 14.695,1.217L14.695,4.404L11.89,4.404C5.941,4.404 2.283,6.088 0.936,9.455C0.487,10.577 0.263,11.969 0.263,13.63C0.263,14.999 0.801,16.884 1.856,19.263Z" />
    </g>
</svg>
