<?xml version="1.0" encoding="UTF-8" standalone="no"?>
<!DOCTYPE svg PUBLIC "-//W3C//DTD SVG 1.1//EN" "http://www.w3.org/Graphics/SVG/1.1/DTD/svg11.dtd">
<svg width="100%" height="100%" viewBox="0 0 20 20" version="1.1" xmlns="http://www.w3.org/2000/svg" xmlns:xlink="http://www.w3.org/1999/xlink" xml:space="preserve" style="fill-rule:evenodd;clip-rule:evenodd;stroke-linejoin:round;stroke-miterlimit:1.41421;">
    <path id="fa_filter" d="M5.101,0C5.203,0 5.305,0.04 5.366,0.1C5.427,0.16 5.468,0.26 5.468,0.36L5.468,15.7L7.646,15.7C7.747,15.7 7.829,15.74 7.911,15.82C7.971,15.88 8.012,15.96 8.012,16.06C8.012,16.16 7.971,16.24 7.89,16.34L4.267,19.899C4.205,19.96 4.104,20 4.023,20C3.921,20 3.84,19.96 3.758,19.899L0.115,16.32C-0.008,16.2 -0.028,16.079 0.033,15.94C0.095,15.78 0.216,15.7 0.38,15.7L2.557,15.7L2.557,0.36C2.557,0.26 2.598,0.16 2.659,0.1C2.72,0.04 2.822,0 2.923,0L5.101,0ZM13.148,15C13.246,15 13.344,15.042 13.402,15.105C13.461,15.168 13.5,15.273 13.5,15.378L13.5,17.622C13.5,17.727 13.461,17.832 13.402,17.894C13.344,17.958 13.246,18 13.148,18L10.352,18C10.254,18 10.156,17.958 10.098,17.894C10.038,17.832 10,17.727 10,17.622L10,15.378C10,15.273 10.038,15.168 10.098,15.105C10.156,15.042 10.254,15 10.352,15L13.148,15ZM15.621,10C15.726,10 15.831,10.042 15.894,10.106C15.958,10.168 16,10.273 16,10.379L16,12.622C16,12.728 15.958,12.833 15.894,12.895C15.831,12.958 15.726,13 15.621,13L10.379,13C10.273,13 10.168,12.958 10.105,12.895C10.041,12.833 10,12.728 10,12.622L10,10.379C10,10.273 10.041,10.168 10.105,10.106C10.168,10.042 10.273,10 10.379,10L15.621,10ZM17.612,5C17.713,5 17.816,5.042 17.876,5.105C17.937,5.168 17.978,5.273 17.978,5.378L17.978,7.622C17.978,7.727 17.937,7.832 17.876,7.895C17.816,7.958 17.713,8 17.612,8L10.366,8C10.264,8 10.162,7.958 10.102,7.895C10.04,7.832 10,7.727 10,7.622L10,5.378C10,5.273 10.04,5.168 10.102,5.105C10.162,5.042 10.264,5 10.366,5L17.612,5ZM10.1,2.895C10.16,2.958 10.259,3 10.36,3L19.64,3C19.741,3 19.84,2.958 19.9,2.895C19.96,2.832 20,2.727 20,2.622L20,0.378C20,0.273 19.96,0.168 19.9,0.105C19.84,0.042 19.741,0 19.64,0L10.36,0C10.259,0 10.16,0.042 10.1,0.105C10.039,0.168 10,0.273 10,0.378L10,2.622C10,2.727 10.039,2.832 10.1,2.895Z" style="fill:black;"/>
</svg>
