<?xml version="1.0" encoding="UTF-8" standalone="no"?>
<!DOCTYPE svg PUBLIC "-//W3C//DTD SVG 1.1//EN" "http://www.w3.org/Graphics/SVG/1.1/DTD/svg11.dtd">
<svg width="100%" height="100%" viewBox="0 0 24 20" version="1.1" xmlns="http://www.w3.org/2000/svg" xmlns:xlink="http://www.w3.org/1999/xlink" xml:space="preserve" style="fill-rule:evenodd;clip-rule:evenodd;stroke-linejoin:round;stroke-miterlimit:1.41421;">
    <g id="ic_red" transform="matrix(0.965873,1.40072e-18,1.40072e-18,0.960154,-0.637476,-0.721075)">
        <path d="M1.019,12.333C1.266,12.759 1.581,13.096 1.984,13.343C1.94,13.657 1.917,13.927 1.917,14.174C1.917,15.184 2.209,16.149 2.77,17.047C3.354,17.967 4.184,18.775 5.262,19.471C6.294,20.144 7.484,20.683 8.808,21.042C10.155,21.401 11.569,21.581 13.028,21.581C14.487,21.581 15.901,21.401 17.225,21.042C18.572,20.683 19.762,20.144 20.816,19.471C21.894,18.775 22.702,17.967 23.285,17.047C23.847,16.149 24.138,15.184 24.138,14.174C24.138,13.927 24.116,13.68 24.071,13.41C24.52,13.163 24.857,12.827 25.126,12.378C25.373,11.951 25.508,11.48 25.508,10.964C25.508,10.178 25.238,9.505 24.677,8.944C24.138,8.383 23.465,8.113 22.679,8.113C21.939,8.113 21.333,8.36 20.794,8.831C18.841,7.575 16.507,6.879 13.769,6.767L15.227,2.165L19.178,3.108C19.178,3.736 19.425,4.297 19.874,4.746C20.323,5.195 20.861,5.42 21.512,5.42C22.141,5.42 22.679,5.195 23.151,4.724C23.6,4.275 23.824,3.714 23.824,3.063C23.824,2.434 23.6,1.896 23.151,1.424C22.679,0.975 22.141,0.751 21.512,0.751C21.041,0.751 20.614,0.886 20.21,1.133C19.829,1.402 19.537,1.739 19.357,2.165L15.003,1.133C14.891,1.11 14.779,1.11 14.666,1.178C14.554,1.245 14.464,1.335 14.442,1.447L12.758,6.744C9.885,6.789 7.416,7.485 5.351,8.809C4.79,8.338 4.184,8.113 3.488,8.113C2.703,8.113 2.029,8.383 1.491,8.944C0.93,9.505 0.66,10.178 0.66,10.964C0.66,11.458 0.772,11.907 1.019,12.333ZM2.164,9.617C2.523,9.258 2.972,9.078 3.488,9.078C3.87,9.078 4.207,9.191 4.521,9.393C3.421,10.268 2.658,11.256 2.254,12.355C1.827,11.974 1.625,11.525 1.625,10.964C1.625,10.448 1.805,9.999 2.164,9.617ZM5.778,9.662C6.743,9.033 7.865,8.562 9.122,8.225C10.357,7.889 11.659,7.709 13.028,7.709C14.397,7.709 15.699,7.889 16.956,8.225C18.213,8.562 19.313,9.033 20.278,9.662C21.22,10.29 21.939,10.964 22.433,11.749C22.926,12.513 23.173,13.321 23.173,14.174C23.173,15.004 22.926,15.812 22.433,16.598C21.939,17.361 21.22,18.057 20.278,18.663C19.313,19.291 18.213,19.763 16.956,20.099C15.699,20.436 14.397,20.615 13.028,20.615C11.659,20.615 10.357,20.436 9.122,20.099C7.865,19.763 6.743,19.291 5.778,18.663C4.835,18.057 4.117,17.361 3.623,16.598C3.129,15.812 2.882,15.004 2.882,14.174C2.882,13.321 3.129,12.513 3.623,11.749C4.117,10.964 4.835,10.29 5.778,9.662ZM8.135,14.039C8.471,14.376 8.875,14.533 9.369,14.533C9.818,14.533 10.222,14.376 10.559,14.039C10.895,13.702 11.075,13.298 11.075,12.827C11.075,12.355 10.895,11.951 10.559,11.615C10.222,11.278 9.818,11.098 9.369,11.098C8.898,11.098 8.494,11.278 8.135,11.615C7.798,11.951 7.618,12.355 7.618,12.827C7.618,13.298 7.798,13.702 8.135,14.039ZM9.077,17.72C9.908,18.55 11.232,18.954 13.073,18.954L13.095,18.954C14.936,18.954 16.26,18.55 17.09,17.72C17.18,17.63 17.225,17.518 17.225,17.361C17.225,17.226 17.18,17.114 17.09,17.024C17.001,16.934 16.888,16.889 16.754,16.889C16.619,16.889 16.507,16.934 16.417,17.024C15.766,17.675 14.666,17.989 13.095,17.989L13.073,17.989C11.502,17.989 10.402,17.675 9.751,17.024C9.661,16.934 9.549,16.889 9.414,16.889C9.279,16.889 9.167,16.934 9.077,17.024C8.988,17.114 8.943,17.226 8.943,17.361C8.943,17.518 8.988,17.63 9.077,17.72ZM15.609,14.039C15.946,14.376 16.35,14.533 16.844,14.533C17.292,14.533 17.697,14.376 18.033,14.039C18.37,13.702 18.549,13.298 18.549,12.827C18.549,12.355 18.37,11.951 18.033,11.615C17.697,11.278 17.292,11.098 16.844,11.098C16.372,11.098 15.968,11.278 15.609,11.615C15.272,11.951 15.093,12.355 15.093,12.827C15.093,13.298 15.272,13.702 15.609,14.039ZM21.512,1.716C21.871,1.716 22.186,1.851 22.455,2.12C22.724,2.39 22.859,2.704 22.859,3.063C22.859,3.445 22.724,3.759 22.455,4.028C22.186,4.297 21.871,4.432 21.512,4.432C21.131,4.432 20.816,4.297 20.547,4.028C20.278,3.759 20.143,3.445 20.143,3.063C20.143,2.704 20.278,2.39 20.547,2.12C20.816,1.851 21.131,1.716 21.512,1.716ZM22.679,9.078C23.196,9.078 23.622,9.258 24.004,9.617C24.363,9.999 24.542,10.448 24.542,10.964C24.542,11.547 24.296,12.041 23.824,12.423C23.443,11.301 22.702,10.313 21.602,9.438C21.916,9.191 22.275,9.078 22.679,9.078Z" style="fill:black;"/>
    </g>
</svg>
