<?xml version="1.0" encoding="UTF-8" standalone="no"?>
<!DOCTYPE svg PUBLIC "-//W3C//DTD SVG 1.1//EN" "http://www.w3.org/Graphics/SVG/1.1/DTD/svg11.dtd">
<svg width="100%" height="100%" viewBox="0 0 13 16" version="1.1" xmlns="http://www.w3.org/2000/svg" xmlns:xlink="http://www.w3.org/1999/xlink" xml:space="preserve" style="fill-rule:evenodd;clip-rule:evenodd;stroke-linejoin:round;stroke-miterlimit:1.41421;">
    <path id="ic_lock" d="M0.324,15.674C0.526,15.898 0.789,16 1.093,16L11.926,16C12.21,16 12.473,15.898 12.676,15.674C12.899,15.47 13,15.206 13,14.901L13,8.366C13,8.061 12.899,7.796 12.676,7.593C12.473,7.369 12.23,7.267 11.926,7.267L11.562,7.267L11.562,5.089C11.562,3.684 11.056,2.503 10.064,1.506C9.071,0.509 7.897,0 6.5,0C5.103,0 3.928,0.509 2.936,1.506C1.943,2.503 1.437,3.684 1.437,5.089L1.437,7.267L1.073,7.267C0.77,7.267 0.526,7.369 0.324,7.593C0.101,7.796 0,8.061 0,8.366L0,14.901C0,15.206 0.101,15.47 0.324,15.674ZM3.604,5.089C3.604,4.274 3.887,3.603 4.455,3.033C5.021,2.463 5.71,2.178 6.5,2.178C7.289,2.178 7.978,2.463 8.545,3.033C9.112,3.603 9.395,4.274 9.395,5.089L9.395,7.267L3.604,7.267L3.604,5.089Z" style="fill:#939393;"/>
</svg>
