<?xml version="1.0" encoding="UTF-8" standalone="no"?>
<!DOCTYPE svg PUBLIC "-//W3C//DTD SVG 1.1//EN" "http://www.w3.org/Graphics/SVG/1.1/DTD/svg11.dtd">
<svg width="100%" height="100%" viewBox="0 0 12 12" version="1.1" xmlns="http://www.w3.org/2000/svg" xmlns:xlink="http://www.w3.org/1999/xlink" xml:space="preserve" style="fill-rule:evenodd;clip-rule:evenodd;stroke-linejoin:round;stroke-miterlimit:1.41421;">
    <g id="ic_up" transform="matrix(-1,3.21625e-16,-3.21625e-16,-1,12,12)">
        <path d="M0.304,6.42L5.311,11.695C5.503,11.899 5.724,12 6,12C6.262,12 6.497,11.899 6.704,11.695L11.71,6.42C11.904,6.231 12,5.985 12,5.696C12,5.42 11.904,5.174 11.71,4.956L11.131,4.362C10.938,4.159 10.703,4.057 10.427,4.057C10.166,4.057 9.931,4.159 9.738,4.362L7.476,6.739L7.476,1.043C7.476,0.754 7.379,0.522 7.186,0.304C6.993,0.101 6.758,0 6.497,0L5.503,0C5.241,0 5.007,0.101 4.814,0.304C4.62,0.522 4.524,0.754 4.524,1.043L4.524,6.739L2.262,4.362C2.069,4.159 1.834,4.057 1.573,4.057C1.297,4.057 1.062,4.159 0.869,4.362L0.304,4.956C0.111,5.159 0,5.406 0,5.696C0,5.985 0.111,6.231 0.304,6.42Z" style="fill:#939393;"/>
    </g>
</svg>
