<?xml version="1.0" encoding="UTF-8" standalone="no"?>
<!DOCTYPE svg PUBLIC "-//W3C//DTD SVG 1.1//EN" "http://www.w3.org/Graphics/SVG/1.1/DTD/svg11.dtd">
<svg width="100%" height="100%" viewBox="0 0 20 22" version="1.1" xmlns="http://www.w3.org/2000/svg" xmlns:xlink="http://www.w3.org/1999/xlink" xml:space="preserve" style="fill-rule:evenodd;clip-rule:evenodd;stroke-linejoin:round;stroke-miterlimit:1.41421;">
    <path style="fill:#ffffff;" d="M5.915,18.648C5.915,19.098 6.077,19.503 6.406,19.833C6.755,20.184 9.613,21.601 10.105,21.716C10.945,21.905 11.809,22 12.719,22L14.189,22C15.402,22 16.383,21.644 17.129,20.957C17.877,20.269 18.25,19.322 18.25,18.112L18.25,18.04C18.764,17.377 19.021,16.571 19.021,15.694C19.021,15.505 18.997,15.314 18.974,15.125C19.323,14.533 19.487,13.892 19.487,13.205C19.487,12.897 19.441,12.588 19.37,12.304C19.79,11.64 20,10.929 20,10.123C20,9.222 19.674,8.44 18.997,7.776C18.344,7.112 17.573,6.781 16.664,6.781L14.353,6.781C14.772,5.903 14.982,5.05 14.982,4.244C14.982,3.2 14.843,2.371 14.539,1.779C14.236,1.162 13.793,0.712 13.21,0.427C12.626,0.143 11.972,0 11.249,0C10.806,0 10.409,0.166 10.082,0.499C9.779,0.783 9.546,1.139 9.381,1.565C9.195,2.015 9.079,2.419 9.008,2.773C8.938,3.129 8.845,3.509 8.775,3.888C8.706,4.268 8.588,4.552 8.402,4.741C8.005,5.192 5.915,9.562 5.915,10L5.915,18.648ZM3.283,20.315L1.657,20.315C1.19,20.315 0.817,20.149 0.491,19.818C0.163,19.486 0,19.083 0,18.633L0,10.145C0,9.695 0.163,9.292 0.491,8.96C0.817,8.628 1.214,8.462 1.657,8.462L3.283,8.462C3.727,8.462 4.124,8.628 4.45,8.96C4.778,9.292 4.941,9.695 4.941,10.145L4.941,18.633C4.941,19.083 4.778,19.486 4.45,19.818C4.124,20.149 3.75,20.315 3.283,20.315ZM2.443,18.633C2.211,18.633 2.023,18.538 1.86,18.372C1.697,18.206 1.603,18.016 1.603,17.779C1.603,17.566 1.697,17.353 1.86,17.186C2.023,17.02 2.211,16.926 2.443,16.926C2.676,16.926 2.863,17.02 3.027,17.186C3.19,17.353 3.283,17.566 3.283,17.779C3.283,18.016 3.19,18.206 3.027,18.372C2.863,18.538 2.676,18.633 2.443,18.633Z" />
</svg>
