<?xml version="1.0" encoding="UTF-8" standalone="no"?>
<!DOCTYPE svg PUBLIC "-//W3C//DTD SVG 1.1//EN" "http://www.w3.org/Graphics/SVG/1.1/DTD/svg11.dtd">
<svg width="100%" height="100%" viewBox="0 0 20 22" version="1.1" xmlns="http://www.w3.org/2000/svg" xmlns:xlink="http://www.w3.org/1999/xlink" xml:space="preserve" style="fill-rule:evenodd;clip-rule:evenodd;stroke-linejoin:round;stroke-miterlimit:1.41421;">
    <g transform="matrix(1.03972,-4.02953e-18,-4.02953e-18,1.05617,-0.902475,-0.881901)">
        <path style="fill:#ffffff;" d="M1.34,13.18C1.654,13.495 2.036,13.652 2.462,13.652L5.896,13.652C6.188,13.854 6.772,14.505 7.624,15.582C8.118,16.233 8.567,16.749 8.949,17.176C9.128,17.355 9.241,17.624 9.308,17.984C9.375,18.343 9.465,18.702 9.532,19.039C9.6,19.375 9.712,19.757 9.891,20.183C10.049,20.587 10.273,20.924 10.565,21.193C10.879,21.508 11.261,21.665 11.687,21.665C12.383,21.665 13.012,21.53 13.573,21.261C14.134,20.991 14.56,20.565 14.852,19.981C15.144,19.42 15.278,18.635 15.278,17.647C15.278,16.884 15.076,16.076 14.673,15.245L16.895,15.245C17.77,15.245 18.511,14.931 19.139,14.303C19.79,13.674 20.104,12.933 20.104,12.08C20.104,11.317 19.902,10.644 19.498,10.015C19.566,9.746 19.611,9.454 19.611,9.162C19.611,8.512 19.453,7.905 19.117,7.344C19.139,7.165 19.162,6.985 19.162,6.806C19.162,5.975 18.915,5.212 18.421,4.584L18.421,4.516C18.421,3.371 18.062,2.474 17.343,1.823C16.625,1.172 15.682,0.835 14.515,0.835L13.101,0.835C12.226,0.835 11.395,0.925 10.587,1.104C9.802,1.284 8.859,1.576 7.804,1.935C6.839,2.272 6.255,2.429 6.076,2.429L2.462,2.429C2.013,2.429 1.654,2.586 1.34,2.9C1.025,3.214 0.868,3.596 0.868,4.022L0.868,12.058C0.868,12.484 1.025,12.866 1.34,13.18ZM3.27,4.022C3.494,4.022 3.674,4.112 3.831,4.269C3.988,4.426 4.078,4.606 4.078,4.83C4.078,5.032 3.988,5.234 3.831,5.392C3.674,5.549 3.494,5.638 3.27,5.638C3.046,5.638 2.866,5.549 2.709,5.392C2.552,5.234 2.462,5.032 2.462,4.83C2.462,4.606 2.552,4.426 2.709,4.269C2.866,4.112 3.046,4.022 3.27,4.022ZM5.672,4.022L6.076,4.022C6.188,4.022 6.323,4 6.457,3.977C6.615,3.955 6.749,3.933 6.884,3.91C6.996,3.865 7.153,3.82 7.355,3.775C7.557,3.708 7.692,3.663 7.804,3.618C7.894,3.596 8.029,3.529 8.231,3.461C8.433,3.394 8.567,3.349 8.612,3.327C10.363,2.721 11.799,2.429 12.899,2.429L14.515,2.429C15.234,2.429 15.795,2.608 16.221,2.945C16.625,3.282 16.827,3.798 16.827,4.516C16.827,4.741 16.805,4.965 16.76,5.212C17.007,5.347 17.209,5.571 17.343,5.885C17.501,6.177 17.568,6.491 17.568,6.806C17.568,7.098 17.501,7.389 17.343,7.659C17.792,8.085 18.017,8.579 18.017,9.162C18.017,9.364 17.972,9.589 17.882,9.858C17.792,10.105 17.703,10.307 17.568,10.442C17.837,10.464 18.062,10.666 18.241,11.048C18.421,11.429 18.511,11.766 18.511,12.058C18.511,12.484 18.354,12.844 18.017,13.18C17.703,13.495 17.321,13.652 16.895,13.652L12.473,13.652C12.473,14.145 12.675,14.796 13.079,15.649C13.483,16.502 13.685,17.176 13.685,17.647C13.685,18.477 13.55,19.083 13.303,19.487C13.034,19.869 12.518,20.071 11.754,20.071C11.552,19.824 11.373,19.465 11.261,18.994C11.148,18.5 11.014,17.961 10.879,17.422C10.744,16.861 10.498,16.39 10.161,16.053C9.959,15.851 9.645,15.47 9.173,14.909C9.128,14.864 9.039,14.751 8.881,14.527C8.724,14.325 8.59,14.168 8.477,14.033C8.365,13.899 8.231,13.719 8.029,13.495C7.849,13.27 7.692,13.09 7.535,12.956C7.378,12.799 7.221,12.664 7.041,12.507C6.861,12.35 6.704,12.237 6.525,12.17C6.368,12.103 6.21,12.058 6.076,12.058L5.672,12.058L5.672,4.022Z" />
    </g>
</svg>
