<?xml version="1.0" encoding="UTF-8" standalone="no"?>
<!DOCTYPE svg PUBLIC "-//W3C//DTD SVG 1.1//EN" "http://www.w3.org/Graphics/SVG/1.1/DTD/svg11.dtd">
<svg width="100%" height="100%" viewBox="0 0 16 16" version="1.1" xmlns="http://www.w3.org/2000/svg" xmlns:xlink="http://www.w3.org/1999/xlink" xml:space="preserve" style="fill-rule:evenodd;clip-rule:evenodd;stroke-linejoin:round;stroke-miterlimit:1.41421;">
    <path id="ic_cog" style="fill:#0066ff;" d="M0.075,9.372C0.131,9.446 0.205,9.484 0.299,9.502L2.203,9.782C2.316,10.119 2.446,10.474 2.633,10.81C2.52,10.996 2.334,11.239 2.073,11.557C1.83,11.874 1.644,12.097 1.55,12.247C1.494,12.322 1.456,12.397 1.456,12.49C1.456,12.583 1.494,12.658 1.531,12.733C1.812,13.106 2.371,13.684 3.249,14.469C3.324,14.562 3.417,14.599 3.51,14.599C3.622,14.599 3.697,14.562 3.771,14.506L5.247,13.386C5.526,13.535 5.844,13.647 6.18,13.759L6.479,15.682C6.479,15.775 6.534,15.85 6.591,15.906C6.666,15.963 6.759,16 6.852,16L9.167,16C9.372,16 9.485,15.906 9.54,15.701C9.634,15.365 9.728,14.712 9.839,13.759C10.157,13.666 10.474,13.535 10.772,13.367L12.21,14.506C12.304,14.562 12.397,14.599 12.49,14.599C12.64,14.599 12.957,14.338 13.461,13.852C13.965,13.348 14.32,12.975 14.507,12.733C14.563,12.658 14.6,12.583 14.6,12.49C14.6,12.397 14.563,12.303 14.488,12.229C13.984,11.612 13.61,11.127 13.367,10.791C13.517,10.529 13.648,10.212 13.778,9.839L15.701,9.54C15.795,9.54 15.869,9.484 15.925,9.409C15.982,9.334 16,9.26 16,9.166L16,6.87C16,6.776 15.982,6.702 15.925,6.628C15.869,6.553 15.795,6.515 15.701,6.497L13.797,6.198C13.685,5.862 13.535,5.526 13.367,5.19C13.48,5.003 13.667,4.76 13.928,4.443C14.171,4.126 14.357,3.902 14.45,3.752C14.507,3.677 14.544,3.603 14.544,3.509C14.544,3.416 14.507,3.341 14.47,3.286C14.208,2.931 13.648,2.333 12.752,1.512C12.658,1.437 12.584,1.4 12.49,1.4C12.378,1.4 12.304,1.437 12.229,1.493L10.754,2.613C10.474,2.464 10.157,2.352 9.821,2.24L9.54,0.317C9.54,0.224 9.485,0.149 9.428,0.093C9.354,0.037 9.26,0 9.167,0L6.852,0C6.647,0 6.534,0.093 6.479,0.299C6.386,0.635 6.292,1.288 6.18,2.24C5.844,2.333 5.526,2.464 5.228,2.632L3.79,1.512C3.697,1.437 3.603,1.4 3.51,1.4C3.361,1.4 3.025,1.661 2.52,2.147C2.017,2.651 1.68,3.024 1.494,3.267C1.438,3.36 1.401,3.454 1.401,3.509C1.401,3.603 1.438,3.677 1.512,3.771C1.98,4.331 2.352,4.817 2.633,5.209C2.446,5.526 2.316,5.843 2.222,6.161L0.28,6.46C0.205,6.46 0.131,6.515 0.075,6.59C0.019,6.665 0,6.74 0,6.833L0,9.13C0,9.223 0.019,9.298 0.075,9.372ZM8.01,5.339C8.738,5.339 9.372,5.6 9.896,6.124C10.4,6.646 10.661,7.262 10.661,7.99C10.661,8.737 10.4,9.353 9.896,9.876C9.372,10.399 8.738,10.66 8.01,10.66C7.281,10.66 6.647,10.399 6.124,9.876C5.601,9.353 5.34,8.737 5.34,7.99C5.34,7.262 5.601,6.646 6.124,6.124C6.647,5.6 7.281,5.339 8.01,5.339Z"/>
</svg>
