<?xml version="1.0" encoding="UTF-8" standalone="no"?>
<!DOCTYPE svg PUBLIC "-//W3C//DTD SVG 1.1//EN" "http://www.w3.org/Graphics/SVG/1.1/DTD/svg11.dtd">
<svg width="100%" height="100%" viewBox="0 0 15 35" version="1.1" xmlns="http://www.w3.org/2000/svg" xmlns:xlink="http://www.w3.org/1999/xlink" xml:space="preserve" style="fill-rule:evenodd;clip-rule:evenodd;stroke-linejoin:round;stroke-miterlimit:1.41421;">
    <path id="ic_drag_handles" d="M1.5,33C2.328,33 3,32.328 3,31.5C3,30.672 2.328,30 1.5,30C0.672,30 0,30.672 0,31.5C0,32.328 0.672,33 1.5,33ZM6.5,33C7.328,33 8,32.328 8,31.5C8,30.672 7.328,30 6.5,30C5.672,30 5,30.672 5,31.5C5,32.328 5.672,33 6.5,33ZM11.5,33C12.328,33 13,32.328 13,31.5C13,30.672 12.328,30 11.5,30C10.672,30 10,30.672 10,31.5C10,32.328 10.672,33 11.5,33ZM1.5,28C2.328,28 3,27.328 3,26.5C3,25.672 2.328,25 1.5,25C0.672,25 0,25.672 0,26.5C0,27.328 0.672,28 1.5,28ZM6.5,28C7.328,28 8,27.328 8,26.5C8,25.672 7.328,25 6.5,25C5.672,25 5,25.672 5,26.5C5,27.328 5.672,28 6.5,28ZM11.5,28C12.328,28 13,27.328 13,26.5C13,25.672 12.328,25 11.5,25C10.672,25 10,25.672 10,26.5C10,27.328 10.672,28 11.5,28ZM6.5,23C7.328,23 8,22.328 8,21.5C8,20.672 7.328,20 6.5,20C5.672,20 5,20.672 5,21.5C5,22.328 5.672,23 6.5,23ZM1.5,23C2.328,23 3,22.328 3,21.5C3,20.672 2.328,20 1.5,20C0.672,20 0,20.672 0,21.5C0,22.328 0.672,23 1.5,23ZM11.5,23C12.328,23 13,22.328 13,21.5C13,20.672 12.328,20 11.5,20C10.672,20 10,20.672 10,21.5C10,22.328 10.672,23 11.5,23ZM1.5,18C2.328,18 3,17.328 3,16.5C3,15.672 2.328,15 1.5,15C0.672,15 0,15.672 0,16.5C0,17.328 0.672,18 1.5,18ZM6.5,18C7.328,18 8,17.328 8,16.5C8,15.672 7.328,15 6.5,15C5.672,15 5,15.672 5,16.5C5,17.328 5.672,18 6.5,18ZM11.5,18C12.328,18 13,17.328 13,16.5C13,15.672 12.328,15 11.5,15C10.672,15 10,15.672 10,16.5C10,17.328 10.672,18 11.5,18ZM1.5,13C2.328,13 3,12.328 3,11.5C3,10.672 2.328,10 1.5,10C0.672,10 0,10.672 0,11.5C0,12.328 0.672,13 1.5,13ZM6.5,13C7.328,13 8,12.328 8,11.5C8,10.672 7.328,10 6.5,10C5.672,10 5,10.672 5,11.5C5,12.328 5.672,13 6.5,13ZM11.5,13C12.328,13 13,12.328 13,11.5C13,10.672 12.328,10 11.5,10C10.672,10 10,10.672 10,11.5C10,12.328 10.672,13 11.5,13ZM6.5,8C7.328,8 8,7.328 8,6.5C8,5.672 7.328,5 6.5,5C5.672,5 5,5.672 5,6.5C5,7.328 5.672,8 6.5,8ZM1.5,8C2.328,8 3,7.328 3,6.5C3,5.672 2.328,5 1.5,5C0.672,5 0,5.672 0,6.5C0,7.328 0.672,8 1.5,8ZM11.5,8C12.328,8 13,7.328 13,6.5C13,5.672 12.328,5 11.5,5C10.672,5 10,5.672 10,6.5C10,7.328 10.672,8 11.5,8ZM1.5,3C2.328,3 3,2.328 3,1.5C3,0.672 2.328,0 1.5,0C0.672,0 0,0.672 0,1.5C0,2.328 0.672,3 1.5,3ZM6.5,3C7.328,3 8,2.328 8,1.5C8,0.672 7.328,0 6.5,0C5.672,0 5,0.672 5,1.5C5,2.328 5.672,3 6.5,3ZM11.5,3C12.328,3 13,2.328 13,1.5C13,0.672 12.328,0 11.5,0C10.672,0 10,0.672 10,1.5C10,2.328 10.672,3 11.5,3Z" style="fill:#d8d8d8;"/>
</svg>
