<?xml version="1.0" encoding="UTF-8" standalone="no"?>
<!DOCTYPE svg PUBLIC "-//W3C//DTD SVG 1.1//EN" "http://www.w3.org/Graphics/SVG/1.1/DTD/svg11.dtd">
<svg width="100%" height="100%" viewBox="0 0 20 20" version="1.1" xmlns="http://www.w3.org/2000/svg" xmlns:xlink="http://www.w3.org/1999/xlink" xml:space="preserve" style="fill-rule:evenodd;clip-rule:evenodd;stroke-linejoin:round;stroke-miterlimit:1.41421;">
    <g id="ic-link" transform="matrix(0.979144,-4.99627e-18,-5.10819e-18,0.978091,-0.264369,-0.635759)">
        <path style="fill:#2475ff;" d="M1.325,8.618L3.929,11.222C4.625,11.918 5.478,12.277 6.488,12.277C7.498,12.277 8.373,11.918 9.092,11.177L10.191,12.277C9.451,12.995 9.092,13.871 9.092,14.903C9.092,15.891 9.428,16.744 10.124,17.439L12.705,20.043C13.401,20.739 14.254,21.098 15.264,21.098C16.252,21.098 17.105,20.761 17.801,20.066L19.641,18.225C20.337,17.529 20.696,16.676 20.696,15.689C20.696,14.679 20.337,13.826 19.641,13.13L17.037,10.526C16.342,9.83 15.489,9.471 14.501,9.471C13.491,9.471 12.616,9.83 11.897,10.571L10.797,9.471C11.538,8.753 11.897,7.878 11.897,6.845C11.897,5.857 11.561,5.004 10.865,4.309L8.283,1.705C7.588,1.009 6.735,0.65 5.725,0.65C4.715,0.65 3.862,0.987 3.166,1.683L1.325,3.523C0.63,4.219 0.27,5.049 0.27,6.06C0.27,7.07 0.63,7.922 1.325,8.618ZM3.031,5.229L4.872,3.388C5.119,3.164 5.388,3.052 5.725,3.052C6.061,3.052 6.331,3.164 6.578,3.411L9.136,5.992C9.383,6.239 9.496,6.508 9.496,6.845C9.496,7.204 9.361,7.496 9.092,7.765C9.069,7.743 8.979,7.653 8.867,7.518C8.732,7.384 8.643,7.294 8.598,7.249C8.53,7.204 8.463,7.159 8.351,7.07C8.239,6.98 8.126,6.935 8.037,6.912C7.924,6.868 7.812,6.868 7.677,6.868C7.363,6.868 7.071,6.98 6.824,7.204C6.6,7.451 6.488,7.743 6.488,8.057C6.488,8.192 6.488,8.304 6.533,8.416C6.555,8.506 6.6,8.618 6.69,8.73C6.78,8.843 6.824,8.91 6.869,8.977C6.914,9.022 7.004,9.112 7.139,9.247C7.273,9.359 7.363,9.449 7.386,9.471C7.139,9.718 6.824,9.853 6.488,9.853C6.151,9.853 5.859,9.741 5.635,9.516L3.031,6.912C2.784,6.688 2.672,6.396 2.672,6.06C2.672,5.745 2.784,5.453 3.031,5.229ZM11.897,13.983C11.92,14.005 12.01,14.095 12.122,14.207C12.256,14.342 12.346,14.432 12.391,14.477C12.436,14.521 12.526,14.589 12.638,14.679C12.75,14.746 12.84,14.813 12.952,14.836C13.064,14.858 13.177,14.881 13.289,14.881C13.626,14.881 13.917,14.768 14.142,14.521C14.389,14.297 14.501,14.005 14.501,13.669C14.501,13.556 14.479,13.444 14.456,13.332C14.434,13.22 14.366,13.13 14.299,13.018C14.209,12.905 14.142,12.838 14.097,12.771C14.052,12.726 13.962,12.636 13.828,12.501C13.693,12.389 13.626,12.299 13.603,12.277C13.85,12.008 14.142,11.873 14.501,11.873C14.838,11.873 15.107,11.985 15.354,12.232L17.935,14.836C18.182,15.06 18.294,15.352 18.294,15.689C18.294,16.003 18.182,16.295 17.935,16.519L16.117,18.337C15.87,18.562 15.601,18.674 15.264,18.674C14.927,18.674 14.636,18.562 14.411,18.337L11.852,15.734C11.605,15.509 11.493,15.217 11.493,14.903C11.493,14.544 11.628,14.23 11.897,13.983Z" />
    </g>
</svg>
