<svg xmlns="http://www.w3.org/2000/svg" width="100" height="100" viewBox="0 0 118 90" version="1.1" xml:space="preserve" stroke-linejoin="round"><path d="M25.5 90L15.5 90C14.7 90 14 89.3 14 88.5 14 87.7 14.7 87 15.5 87L25.5 87C26.3 87 27 87.7 27 88.5 27 89.3 26.3 90 25.5 90ZM44.5 90L34.5 90C33.7 90 33 89.3 33 88.5 33 87.7 33.7 87 34.5 87L44.5 87C45.3 87 46 87.7 46 88.5 46 89.3 45.3 90 44.5 90ZM63.5 90L54.5 90C53.7 90 53 89.3 53 88.5 53 87.7 53.7 87 54.5 87L63.5 87C64.3 87 65 87.7 65 88.5 65 89.3 64.3 90 63.5 90ZM83.5 90L73.5 90C72.6 90 72 89.3 72 88.5 72 87.7 72.6 87 73.5 87L83.5 87C84.3 87 85 87.7 85 88.5 85 89.3 84.3 90 83.5 90ZM102.5 90L92.5 90C91.7 90 91 89.3 91 88.5 91 87.7 91.7 87 92.5 87L102.5 87C103.3 87 104 87.7 104 88.5 104 89.3 103.3 90 102.5 90ZM116.5 90L111.5 90C110.7 90 110 89.3 110 88.5 110 87.7 110.7 87 111.5 87L115 87 115 83.5C115 82.7 115.7 82 116.5 82 117.3 82 118 82.7 118 83.5L118 88.5C118 89.3 117.3 90 116.5 90ZM6.5 90L1.5 90C0.7 90 0 89.3 0 88.5L0 83.5C0 82.7 0.7 82 1.5 82 2.3 82 3 82.7 3 83.5L3 87 6.5 87C7.3 87 8 87.7 8 88.5 8 89.3 7.3 90 6.5 90ZM1.5 76C0.7 76 0 75.3 0 74.5L0 64.5C0 63.7 0.7 63 1.5 63 2.3 63 3 63.7 3 64.5L3 74.5C3 75.3 2.3 76 1.5 76ZM116.5 76C115.7 76 115 75.3 115 74.5L115 64.5C115 63.7 115.7 63 116.5 63 117.3 63 118 63.7 118 64.5L118 74.5C118 75.3 117.3 76 116.5 76ZM116.5 57C115.7 57 115 56.3 115 55.5L115 45.5C115 44.7 115.7 44 116.5 44 117.3 44 118 44.7 118 45.5L118 55.5C118 56.3 117.3 57 116.5 57ZM1.5 56C0.7 56 0 55.3 0 54.5L0 45.5C0 44.7 0.7 44 1.5 44 2.3 44 3 44.7 3 45.5L3 54.5C3 55.3 2.3 56 1.5 56ZM59.4 55L58.7 53 58.6 53C58.5 52 54.1 39.9 54.1 39.9 53.9 39.4 54 38.8 54.4 38.5 54.8 38.1 55.4 37.9 55.9 38.1L68 42.1 68 18 57 18C55.6 18 55 17.5 55 16L55 5 30 5 30 55 59.4 55ZM1.5 37C0.7 37 0 36.3 0 35.5L0 25.5C0 24.7 0.7 24 1.5 24 2.3 24 3 24.7 3 25.5L3 35.5C3 36.3 2.3 37 1.5 37ZM116.5 37C115.7 37 115 36.3 115 35.5L115 25.5C115 24.7 115.7 24 116.5 24 117.3 24 118 24.7 118 25.5L118 35.5C118 36.3 117.3 37 116.5 37ZM1.5 17.5C0.7 17.5 0 16.8 0 16L0 11.5C0 10.7 0.7 10 1.5 10L6 10C6.8 10 7.5 10.7 7.5 11.5 7.5 12.3 6.8 13 6 13L3 13 3 16C3 16.8 2.3 17.5 1.5 17.5ZM116.5 17C115.7 17 115 16.3 115 15.5L115 13 111.5 13C110.7 13 110 12.3 110 11.5 110 10.7 110.7 10 111.5 10L116.6 10C117.4 10 118 10.7 118 11.5L118 15.5C118 16.3 117.3 17 116.5 17ZM25 10L25 3C25 1.5 26.5 0 28 0L57 0C57.9 0 58.7 0.7 59 1 72 13.9 72 13.9 72 14 72.3 14.4 73 15.1 73 16L73 43.8 83.9 47.4C84.4 47.5 84.8 48 84.8 48.6 84.8 49.1 84.5 49.6 84 49.9L76.5 53.4 86.6 63.3C86.9 63.5 87 63.9 87 64.2 87 64.6 86.8 64.9 86.6 65.2L82 69.6C81.8 69.8 81.7 69.9 81.5 69.9L81.5 69.9C81.5 69.9 81.4 69.9 81.4 69.9 81.3 70 81.3 70 81.3 70 81.2 70 81.1 70 81 70 80.7 70 80.3 69.9 80 69.6L70.1 60C70.1 60 70 60 70 60L69.8 60 66.2 67.1C66 67.6 65.5 67.9 64.9 67.9 64.3 67.8 63.8 67.5 63.6 67L61.2 60 28 60C26.5 60 25 58.5 25 57L25 13 15.5 13C14.7 13 14 12.3 14 11.5 14 10.7 14.7 10 15.5 10L25 10ZM83.5 10L73.5 10C72.7 10 72 10.7 72 11.5 72 12.3 72.7 13 73.5 13L83.5 13C84.3 13 85 12.3 85 11.5 85 10.7 84.3 10 83.5 10ZM102.5 10L92.5 10C91.7 10 91 10.7 91 11.5 91 12.3 91.7 13 92.5 13L102.5 13C103.3 13 104 12.3 104 11.5 104 10.7 103.3 10 102.5 10Z" fill="rgb(144,147,152)"/></svg>