<?xml version="1.0" encoding="UTF-8" standalone="no"?>
<!DOCTYPE svg PUBLIC "-//W3C//DTD SVG 1.1//EN" "http://www.w3.org/Graphics/SVG/1.1/DTD/svg11.dtd">
<svg width="100%" height="100%" viewBox="0 0 20 20" version="1.1" xmlns="http://www.w3.org/2000/svg" xmlns:xlink="http://www.w3.org/1999/xlink" xml:space="preserve" style="fill-rule:evenodd;clip-rule:evenodd;stroke-linejoin:round;stroke-miterlimit:1.41421;">
    <g id="ic_arrows" transform="matrix(0.890155,0,0,0.890155,-0.235001,-0.648033)">
        <path style="fill:#535353;" d="M0.511,12.534L3.721,15.721C3.878,15.878 4.058,15.968 4.282,15.968C4.507,15.968 4.686,15.878 4.843,15.721C5,15.564 5.09,15.385 5.09,15.16L5.09,13.567L9.894,13.567L9.894,18.37L8.3,18.37C8.075,18.37 7.896,18.46 7.739,18.617C7.582,18.774 7.492,18.953 7.492,19.178C7.492,19.402 7.582,19.582 7.739,19.739L10.926,22.949C11.083,23.106 11.285,23.196 11.51,23.196C11.712,23.196 11.914,23.106 12.071,22.949L15.258,19.739C15.415,19.582 15.505,19.402 15.505,19.178C15.505,18.953 15.415,18.774 15.258,18.617C15.101,18.46 14.921,18.37 14.697,18.37L13.103,18.37L13.103,13.567L17.907,13.567L17.907,15.16C17.907,15.385 17.996,15.564 18.154,15.721C18.311,15.878 18.49,15.968 18.715,15.968C18.939,15.968 19.119,15.878 19.276,15.721L22.486,12.534C22.643,12.377 22.732,12.175 22.732,11.95C22.732,11.749 22.643,11.546 22.486,11.389L19.276,8.202C19.119,8.045 18.939,7.955 18.715,7.955C18.49,7.955 18.311,8.045 18.154,8.202C17.996,8.359 17.907,8.539 17.907,8.763L17.907,10.357L13.103,10.357L13.103,5.553L14.697,5.553C14.921,5.553 15.101,5.464 15.258,5.306C15.415,5.149 15.505,4.97 15.505,4.745C15.505,4.521 15.415,4.341 15.258,4.184L12.071,0.974C11.914,0.817 11.712,0.728 11.51,0.728C11.285,0.728 11.083,0.817 10.926,0.974L7.739,4.184C7.582,4.341 7.492,4.521 7.492,4.745C7.492,4.97 7.582,5.149 7.739,5.306C7.896,5.464 8.075,5.553 8.3,5.553L9.894,5.553L9.894,10.357L5.09,10.357L5.09,8.763C5.09,8.539 5,8.359 4.843,8.202C4.686,8.045 4.507,7.955 4.282,7.955C4.058,7.955 3.878,8.045 3.721,8.202L0.511,11.389C0.354,11.546 0.264,11.749 0.264,11.95C0.264,12.175 0.354,12.377 0.511,12.534Z" />
    </g>
</svg>
