<?xml version="1.0" encoding="UTF-8" standalone="no"?>
<!DOCTYPE svg PUBLIC "-//W3C//DTD SVG 1.1//EN" "http://www.w3.org/Graphics/SVG/1.1/DTD/svg11.dtd">
<svg width="100%" height="100%" viewBox="0 0 16 12" version="1.1" xmlns="http://www.w3.org/2000/svg" xmlns:xlink="http://www.w3.org/1999/xlink" xml:space="preserve" style="fill-rule:evenodd;clip-rule:evenodd;stroke-linejoin:round;stroke-miterlimit:1.41421;">
    <path style="fill:#ffffff;" id="ic_exchange" d="M0.08,9.192L2.928,11.908C3.008,11.969 3.072,12 3.136,12C3.216,12 3.28,11.969 3.344,11.923C3.408,11.862 3.424,11.8 3.424,11.724L3.424,10.097L15.712,10.097C15.792,10.097 15.856,10.066 15.919,10.02C15.968,9.959 16,9.898 16,9.821L16,8.179C16,8.102 15.968,8.041 15.919,7.98C15.856,7.933 15.792,7.903 15.712,7.903L3.424,7.903L3.424,6.276C3.424,6.2 3.408,6.138 3.344,6.077C3.28,6.031 3.216,6 3.136,6C3.056,6 2.992,6.031 2.944,6.077L0.08,8.808C0.032,8.854 0,8.916 0,8.992C0,9.069 0.032,9.13 0.08,9.192ZM0.08,4.021C0.144,4.067 0.208,4.097 0.288,4.097L12.576,4.097L12.576,5.724C12.576,5.8 12.592,5.862 12.655,5.923C12.72,5.969 12.784,6 12.864,6C12.944,6 13.008,5.969 13.056,5.923L15.919,3.191C15.968,3.146 16,3.084 16,2.992C16,2.915 15.968,2.854 15.919,2.808L13.072,0.092C13.008,0.031 12.928,0 12.864,0C12.768,0 12.704,0.031 12.655,0.077C12.592,0.122 12.576,0.2 12.576,0.276L12.576,1.903L0.288,1.903C0.208,1.903 0.144,1.933 0.08,1.979C0.032,2.041 0,2.102 0,2.179L0,3.821C0,3.898 0.032,3.959 0.08,4.021Z" />
</svg>
