<?xml version="1.0" encoding="UTF-8" standalone="no"?>
<!DOCTYPE svg PUBLIC "-//W3C//DTD SVG 1.1//EN" "http://www.w3.org/Graphics/SVG/1.1/DTD/svg11.dtd">
<svg width="100%" height="100%" viewBox="0 0 20 20" version="1.1" xmlns="http://www.w3.org/2000/svg" xmlns:xlink="http://www.w3.org/1999/xlink" xml:space="preserve" style="fill-rule:evenodd;clip-rule:evenodd;stroke-linejoin:round;stroke-miterlimit:1.41421;">
    <g id="ic_expand" transform="matrix(1.03972,0,0,1.03972,-0.902475,-0.198586)">
        <path style="fill:#e76627;" d="M1.115,19.202C1.272,19.359 1.452,19.427 1.676,19.427L7.288,19.427C7.49,19.427 7.692,19.359 7.849,19.202C8.006,19.045 8.073,18.843 8.073,18.641C8.073,18.417 8.006,18.237 7.849,18.08L6.031,16.262L10.206,12.109C10.273,12.02 10.318,11.93 10.318,11.818C10.318,11.705 10.273,11.616 10.206,11.526L8.769,10.112C8.679,10.022 8.59,9.977 8.477,9.977C8.365,9.977 8.275,10.022 8.186,10.112L4.033,14.264L2.238,12.468C2.08,12.311 1.878,12.222 1.676,12.222C1.452,12.222 1.272,12.311 1.115,12.468C0.958,12.626 0.868,12.805 0.868,13.03L0.868,18.641C0.868,18.843 0.958,19.045 1.115,19.202ZM10.767,8.092L12.203,9.528C12.293,9.618 12.383,9.663 12.495,9.663C12.607,9.663 12.697,9.618 12.787,9.528L16.939,5.376L18.735,7.171C18.892,7.328 19.094,7.418 19.296,7.418C19.521,7.418 19.7,7.328 19.88,7.171C20.037,7.014 20.104,6.835 20.104,6.61L20.104,0.999C20.104,0.774 20.037,0.595 19.88,0.438C19.7,0.28 19.521,0.191 19.296,0.191L13.685,0.191C13.483,0.191 13.281,0.28 13.124,0.438C12.967,0.595 12.899,0.774 12.899,0.999C12.899,1.223 12.967,1.403 13.124,1.56L14.942,3.356L10.767,7.53C10.7,7.598 10.655,7.71 10.655,7.822C10.655,7.912 10.7,8.024 10.767,8.092Z" />
    </g>
</svg>
