<?xml version="1.0" encoding="UTF-8" standalone="no"?>
<!DOCTYPE svg PUBLIC "-//W3C//DTD SVG 1.1//EN" "http://www.w3.org/Graphics/SVG/1.1/DTD/svg11.dtd">
<svg width="100%" height="100%" viewBox="0 0 18 18" version="1.1" xmlns="http://www.w3.org/2000/svg" xmlns:xlink="http://www.w3.org/1999/xlink" xml:space="preserve" style="fill-rule:evenodd;clip-rule:evenodd;stroke-linejoin:round;stroke-miterlimit:1.41421;">
    <g transform="matrix(0.801925,0,0,0.801925,-0.210906,-0.542903)">
        <path style="fill:#2475ff;" d="M0.622,17.96C0.847,18.207 1.138,18.319 1.475,18.319L8.276,18.319L8.276,21.911C8.276,22.247 8.388,22.539 8.635,22.764C8.86,23.01 9.151,23.123 9.488,23.123L21.497,23.123C21.833,23.123 22.125,23.01 22.349,22.764C22.596,22.539 22.709,22.247 22.709,21.911L22.709,6.715C22.709,6.378 22.596,6.086 22.349,5.862C22.125,5.615 21.833,5.503 21.497,5.503L16.289,5.503C15.773,5.503 15.234,5.66 14.673,5.997L14.673,1.889C14.673,1.552 14.561,1.261 14.314,1.036C14.089,0.789 13.798,0.677 13.483,0.677L8.276,0.677C7.939,0.677 7.558,0.767 7.176,0.924C6.772,1.103 6.458,1.305 6.211,1.53L1.116,6.648C0.869,6.872 0.689,7.186 0.51,7.59C0.353,7.994 0.263,8.354 0.263,8.69L0.263,17.107C0.263,17.444 0.375,17.736 0.622,17.96ZM1.857,8.69L7.064,8.69C7.401,8.69 7.692,8.578 7.917,8.331C8.164,8.107 8.276,7.815 8.276,7.478L8.276,2.271L13.079,2.271L13.079,7.5L9.129,11.451C8.882,11.698 8.703,12.012 8.523,12.416C8.366,12.82 8.276,13.179 8.276,13.516L8.276,16.726L1.857,16.726L1.857,8.69ZM6.682,3.348L6.682,7.097L2.934,7.097L6.682,3.348ZM9.87,13.494L15.077,13.494C15.414,13.494 15.706,13.381 15.93,13.134C16.177,12.91 16.289,12.618 16.289,12.304L16.289,7.097L21.115,7.097L21.115,21.529L9.87,21.529L9.87,13.494ZM14.696,8.151L14.696,11.9L10.925,11.9L14.696,8.151Z" />
    </g>
</svg>
