<?xml version="1.0" encoding="UTF-8" standalone="no"?>
<!DOCTYPE svg PUBLIC "-//W3C//DTD SVG 1.1//EN" "http://www.w3.org/Graphics/SVG/1.1/DTD/svg11.dtd">
<svg width="100%" height="100%" viewBox="0 0 12 12" version="1.1" xmlns="http://www.w3.org/2000/svg" xmlns:xlink="http://www.w3.org/1999/xlink" xml:space="preserve" style="fill-rule:evenodd;clip-rule:evenodd;stroke-linejoin:round;stroke-miterlimit:1.41421;">
    <path style="fill:#ffffff;" id="ic_plus_circle" d="M2.993,11.188C3.902,11.734 4.909,12 6,12C7.091,12 8.098,11.734 9.007,11.188C9.93,10.656 10.657,9.928 11.189,9.003C11.735,8.093 12,7.085 12,5.993C12,4.915 11.735,3.906 11.189,2.996C10.657,2.072 9.93,1.344 9.007,0.812C8.098,0.266 7.091,0 6,0C4.909,0 3.902,0.266 2.993,0.812C2.07,1.344 1.342,2.072 0.811,2.996C0.265,3.906 0,4.915 0,5.993C0,7.085 0.265,8.093 0.811,9.003C1.342,9.928 2.07,10.656 2.993,11.188ZM3,5.573C3,5.453 3.048,5.357 3.132,5.273C3.215,5.189 3.312,5.141 3.432,5.141L5.148,5.141L5.148,3.433C5.148,3.313 5.184,3.216 5.268,3.132C5.352,3.048 5.46,3 5.568,3L6.432,3C6.54,3 6.648,3.048 6.732,3.132C6.816,3.216 6.852,3.313 6.852,3.433L6.852,5.141L8.568,5.141C8.688,5.141 8.784,5.189 8.868,5.273C8.952,5.357 9,5.453 9,5.573L9,6.427C9,6.547 8.952,6.644 8.868,6.728C8.784,6.812 8.688,6.86 8.568,6.86L6.852,6.86L6.852,8.567C6.852,8.687 6.816,8.784 6.732,8.868C6.648,8.952 6.54,9 6.432,9L5.568,9C5.46,9 5.352,8.952 5.268,8.868C5.184,8.784 5.148,8.687 5.148,8.567L5.148,6.86L3.432,6.86C3.312,6.86 3.215,6.812 3.132,6.728C3.048,6.644 3,6.547 3,6.427L3,5.573Z" />
</svg>
