<?xml version="1.0" encoding="UTF-8" standalone="no"?>
<!DOCTYPE svg PUBLIC "-//W3C//DTD SVG 1.1//EN" "http://www.w3.org/Graphics/SVG/1.1/DTD/svg11.dtd">
<svg width="100%" height="100%" viewBox="0 0 8 12" version="1.1" xmlns="http://www.w3.org/2000/svg" xmlns:xlink="http://www.w3.org/1999/xlink" xml:space="preserve" style="fill-rule:evenodd;clip-rule:evenodd;stroke-linejoin:round;stroke-miterlimit:1.41421;">
    <path style="fill:#ffffff;" id="ic_step_backward" d="M0.154,11.844C0.252,11.942 0.364,11.984 0.503,11.984L1.497,11.984C1.637,11.984 1.748,11.942 1.846,11.844C1.944,11.746 2,11.62 2,11.495L2,6.199C2.014,6.255 2.056,6.311 2.098,6.353L7.637,11.886C7.748,11.984 7.819,12.026 7.888,11.984C7.958,11.956 8,11.872 8,11.746L8,0.262C8,0.122 7.958,0.052 7.888,0.01C7.819,-0.018 7.748,0.01 7.637,0.122L2.098,5.655C2.056,5.696 2.014,5.738 2,5.794L2,0.513C2,0.373 1.944,0.262 1.846,0.164C1.748,0.066 1.637,0.01 1.497,0.01L0.503,0.01C0.364,0.01 0.252,0.066 0.154,0.164C0.056,0.262 0,0.373 0,0.513L0,11.495C0,11.62 0.056,11.746 0.154,11.844Z" />
</svg>
