<?xml version="1.0" encoding="UTF-8" standalone="no"?>
<!DOCTYPE svg PUBLIC "-//W3C//DTD SVG 1.1//EN" "http://www.w3.org/Graphics/SVG/1.1/DTD/svg11.dtd">
<svg width="100%" height="100%" viewBox="0 0 8 12" version="1.1" xmlns="http://www.w3.org/2000/svg" xmlns:xlink="http://www.w3.org/1999/xlink" xml:space="preserve" style="fill-rule:evenodd;clip-rule:evenodd;stroke-linejoin:round;stroke-miterlimit:1.41421;">
    <path style="fill:#ffffff;" id="ic_step_forward" d="M0.364,11.886L5.903,6.353C5.944,6.311 5.972,6.255 6,6.199L6,11.495C6,11.62 6.056,11.746 6.154,11.844C6.252,11.942 6.364,11.984 6.504,11.984L7.497,11.984C7.637,11.984 7.748,11.942 7.846,11.844C7.945,11.746 8,11.62 8,11.495L8,0.513C8,0.373 7.945,0.262 7.846,0.164C7.748,0.066 7.637,0.01 7.497,0.01L6.504,0.01C6.364,0.01 6.252,0.066 6.154,0.164C6.056,0.262 6,0.373 6,0.513L6,5.794C5.972,5.738 5.944,5.696 5.903,5.655L0.364,0.122C0.252,0.01 0.182,-0.018 0.112,0.01C0.042,0.052 0,0.122 0,0.262L0,11.746C0,11.872 0.042,11.956 0.112,11.984C0.182,12.026 0.252,11.984 0.364,11.886Z" />
</svg>
