<?xml version="1.0" encoding="UTF-8" standalone="no"?>
<!DOCTYPE svg PUBLIC "-//W3C//DTD SVG 1.1//EN" "http://www.w3.org/Graphics/SVG/1.1/DTD/svg11.dtd">
<svg width="100%" height="100%" viewBox="0 0 64 64" version="1.1" xmlns="http://www.w3.org/2000/svg" xmlns:xlink="http://www.w3.org/1999/xlink" xml:space="preserve" style="fill-rule:evenodd;clip-rule:evenodd;stroke-linejoin:round;stroke-miterlimit:1.41421;">
    <g id="ic_layers" transform="matrix(1.27968,0,0,1.27968,0.00233893,0.00343473)">
        <path d="M23.125,0C22.955,0.021 22.794,0.086 22.656,0.188L0.406,17.25C0.164,17.439 0.022,17.73 0.022,18.038C0.022,18.484 0.321,18.878 0.75,19L10.469,21.5L0.406,29.25C0.164,29.439 0.022,29.73 0.022,30.038C0.022,30.484 0.321,30.878 0.75,31L10.5,33.531L0.406,41.219C0.146,41.407 -0.008,41.709 -0.008,42.03C-0.008,42.487 0.306,42.889 0.75,43L27.75,49.969C28.084,50.053 28.439,49.958 28.688,49.719L49.688,30.094C49.89,29.905 50.004,29.64 50.004,29.363C50.004,28.872 49.642,28.45 49.156,28.375L40.281,26.875L49.688,18.094C49.89,17.905 50.004,17.64 50.004,17.363C50.004,16.872 49.642,16.45 49.156,16.375L40.313,14.875L49.688,6.094C49.89,5.905 50.004,5.64 50.004,5.363C50.004,4.872 49.642,4.45 49.156,4.375L23.438,0C23.334,-0.016 23.229,-0.016 23.125,0L23.125,0ZM23.531,2.031L27.094,2.625C27.043,2.745 27,2.862 27,3C27,3.552 27.448,4 28,4C28.552,4 29,3.552 29,3C29,2.989 29,2.979 29,2.969L33.25,3.688C33.433,3.886 33.709,4 34,4C34.153,4 34.277,3.936 34.406,3.875L42.375,5.25C42.153,5.433 42,5.69 42,6C42,6.552 42.448,7 43,7C43.552,7 44,6.552 44,6C44,5.813 43.933,5.65 43.844,5.5L46.844,6L37.625,14.625C37.569,14.661 37.517,14.703 37.469,14.75C37.411,14.796 37.359,14.849 37.313,14.906C37.301,14.927 37.291,14.948 37.281,14.969L27.719,23.906L25.781,23.406C25.599,23.166 25.325,23 25,23C24.862,23 24.745,23.043 24.625,23.094L16.969,21.125C16.975,21.081 17,21.046 17,21C17,20.448 16.552,20 16,20C15.586,20 15.246,20.266 15.094,20.625L13.219,20.156C13.198,20.145 13.177,20.135 13.156,20.125L12.813,20.063C12.782,20.051 12.75,20.04 12.719,20.031L7.719,18.719C7.9,18.538 8,18.276 8,18C8,17.448 7.552,17 7,17C6.448,17 6,17.448 6,18C6,18.114 6.028,18.211 6.063,18.313L3.219,17.563L15.219,8.375C15.081,8.546 15,8.763 15,9C15,9.552 15.448,10 16,10C16.552,10 17,9.552 17,9C17,8.448 16.552,8 16,8C15.862,8 15.745,8.043 15.625,8.094L18.063,6.219C18.168,6.657 18.529,7 19,7C19.552,7 20,6.552 20,6C20,5.625 19.774,5.328 19.469,5.156L21.313,3.719C21.492,3.889 21.734,4 22,4C22.552,4 23,3.552 23,3C23,2.828 22.952,2.673 22.875,2.531L23.531,2.031ZM25,5C24.448,5 24,5.448 24,6C24,6.552 24.448,7 25,7C25.552,7 26,6.552 26,6C26,5.448 25.552,5 25,5ZM31,5C30.448,5 30,5.448 30,6C30,6.552 30.448,7 31,7C31.552,7 32,6.552 32,6C32,5.448 31.552,5 31,5ZM37,5C36.448,5 36,5.448 36,6C36,6.552 36.448,7 37,7C37.552,7 38,6.552 38,6C38,5.448 37.552,5 37,5ZM22,8C21.448,8 21,8.448 21,9C21,9.552 21.448,10 22,10C22.552,10 23,9.552 23,9C23,8.448 22.552,8 22,8ZM28,8C27.448,8 27,8.448 27,9C27,9.552 27.448,10 28,10C28.552,10 29,9.552 29,9C29,8.448 28.552,8 28,8ZM34,8C33.448,8 33,8.448 33,9C33,9.552 33.448,10 34,10C34.552,10 35,9.552 35,9C35,8.448 34.552,8 34,8ZM40,8C39.448,8 39,8.448 39,9C39,9.552 39.448,10 40,10C40.552,10 41,9.552 41,9C41,8.448 40.552,8 40,8ZM13,11C12.448,11 12,11.448 12,12C12,12.552 12.448,13 13,13C13.552,13 14,12.552 14,12C14,11.448 13.552,11 13,11ZM19,11C18.448,11 18,11.448 18,12C18,12.552 18.448,13 19,13C19.552,13 20,12.552 20,12C20,11.448 19.552,11 19,11ZM25,11C24.448,11 24,11.448 24,12C24,12.552 24.448,13 25,13C25.552,13 26,12.552 26,12C26,11.448 25.552,11 25,11ZM31,11C30.448,11 30,11.448 30,12C30,12.552 30.448,13 31,13C31.552,13 32,12.552 32,12C32,11.448 31.552,11 31,11ZM37,11C36.448,11 36,11.448 36,12C36,12.552 36.448,13 37,13C37.552,13 38,12.552 38,12C38,11.448 37.552,11 37,11ZM10,14C9.448,14 9,14.448 9,15C9,15.552 9.448,16 10,16C10.552,16 11,15.552 11,15C11,14.448 10.552,14 10,14ZM16,14C15.448,14 15,14.448 15,15C15,15.552 15.448,16 16,16C16.552,16 17,15.552 17,15C17,14.448 16.552,14 16,14ZM22,14C21.448,14 21,14.448 21,15C21,15.552 21.448,16 22,16C22.552,16 23,15.552 23,15C23,14.448 22.552,14 22,14ZM28,14C27.448,14 27,14.448 27,15C27,15.552 27.448,16 28,16C28.552,16 29,15.552 29,15C29,14.448 28.552,14 28,14ZM34,14C33.448,14 33,14.448 33,15C33,15.552 33.448,16 34,16C34.552,16 35,15.552 35,15C35,14.448 34.552,14 34,14ZM38.469,16.594L46.844,18L37.688,26.594C37.666,26.614 37.645,26.635 37.625,26.656L37.594,26.656C37.422,26.749 37.28,26.89 37.188,27.063L27.719,35.906L3.219,29.563L12.938,22.156L27.75,25.969C28.084,26.053 28.439,25.958 28.688,25.719L38.469,16.594ZM13,17C12.448,17 12,17.448 12,18C12,18.552 12.448,19 13,19C13.552,19 14,18.552 14,18C14,17.448 13.552,17 13,17ZM19,17C18.448,17 18,17.448 18,18C18,18.552 18.448,19 19,19C19.552,19 20,18.552 20,18C20,17.448 19.552,17 19,17ZM25,17C24.448,17 24,17.448 24,18C24,18.552 24.448,19 25,19C25.552,19 26,18.552 26,18C26,17.448 25.552,17 25,17ZM31,17C30.448,17 30,17.448 30,18C30,18.552 30.448,19 31,19C31.552,19 32,18.552 32,18C32,17.448 31.552,17 31,17ZM22,20C21.448,20 21,20.448 21,21C21,21.552 21.448,22 22,22C22.552,22 23,21.552 23,21C23,20.448 22.552,20 22,20ZM28,20C27.448,20 27,20.448 27,21C27,21.552 27.448,22 28,22C28.552,22 29,21.552 29,21C29,20.448 28.552,20 28,20ZM38.438,28.594L46.844,30L27.688,47.875L3.219,41.563L12.719,34.313C12.787,34.268 12.85,34.216 12.906,34.156L27.75,37.969C28.084,38.053 28.439,37.958 28.688,37.719L38.438,28.594Z" style="fill:#b3b3b3;fill-rule:nonzero;"/>
    </g>
</svg>
