<?xml version="1.0" encoding="UTF-8" standalone="no"?>
<!DOCTYPE svg PUBLIC "-//W3C//DTD SVG 1.1//EN" "http://www.w3.org/Graphics/SVG/1.1/DTD/svg11.dtd">
<svg width="100%" height="100%" viewBox="0 0 60 42" version="1.1" xmlns="http://www.w3.org/2000/svg" xmlns:xlink="http://www.w3.org/1999/xlink" xml:space="preserve" style="fill-rule:evenodd;clip-rule:evenodd;stroke-linejoin:round;stroke-miterlimit:1.41421;">
    <g id="ic_video_camera" transform="matrix(2.67308,1.28198e-17,1.28198e-17,2.62074,-0.705694,-2.53688)">
        <path d="M1.319,15.939C2.037,16.635 2.868,16.994 3.878,16.994L12.699,16.994C13.686,16.994 14.539,16.635 15.235,15.939C15.954,15.221 16.29,14.39 16.29,13.38L16.29,11.315L21.34,16.365C21.498,16.523 21.677,16.59 21.902,16.59C22.014,16.59 22.104,16.568 22.216,16.523C22.553,16.388 22.71,16.141 22.71,15.782L22.71,2.157C22.71,1.821 22.553,1.574 22.216,1.417C22.104,1.394 22.014,1.372 21.902,1.372C21.677,1.372 21.498,1.439 21.34,1.596L16.29,6.624L16.29,4.559C16.29,3.571 15.954,2.719 15.235,2.023C14.539,1.304 13.686,0.968 12.699,0.968L3.878,0.968C2.868,0.968 2.037,1.304 1.319,2.023C0.623,2.719 0.264,3.571 0.264,4.559L0.264,13.38C0.264,14.39 0.623,15.221 1.319,15.939Z" style="fill:#b3b3b3;"/>
    </g>
</svg>
