<?xml version="1.0" encoding="UTF-8" standalone="no"?>
<!DOCTYPE svg PUBLIC "-//W3C//DTD SVG 1.1//EN" "http://www.w3.org/Graphics/SVG/1.1/DTD/svg11.dtd">
<svg width="100%" height="100%" viewBox="0 0 18 18" version="1.1" xmlns="http://www.w3.org/2000/svg" xmlns:xlink="http://www.w3.org/1999/xlink" xml:space="preserve" style="fill-rule:evenodd;clip-rule:evenodd;stroke-linejoin:round;stroke-miterlimit:1.41421;">
    <path id="album" d="M14.005,18L3.995,18C1.789,18 0,16.208 0,14.005L0,3.995C0,1.789 1.792,0 3.995,0L14.005,0C16.211,0 18,1.792 18,3.995L18,14.005C18,16.211 16.208,18 14.005,18ZM10,8L10,5L8,5L8,8L5,8L5,10L8,10L8,13L10,13L10,10L13,10L13,8L10,8Z" style="fill:white;"/>
</svg>
