<?xml version="1.0" encoding="UTF-8" standalone="no"?>
<!DOCTYPE svg PUBLIC "-//W3C//DTD SVG 1.1//EN" "http://www.w3.org/Graphics/SVG/1.1/DTD/svg11.dtd">
<svg width="100%" height="100%" viewBox="0 0 20 20" version="1.1" xmlns="http://www.w3.org/2000/svg" xmlns:xlink="http://www.w3.org/1999/xlink" xml:space="preserve" style="fill-rule:evenodd;clip-rule:evenodd;stroke-linejoin:round;stroke-miterlimit:1.41421;">
    <path id="Background" d="M1.097,18.903C1.844,19.626 2.707,20 3.758,20L16.243,20C17.294,20 18.157,19.626 18.903,18.903C19.627,18.156 20,17.293 20,16.242L20,3.757C20,2.706 19.627,1.843 18.903,1.097C18.157,0.373 17.294,0 16.243,0L3.758,0C2.707,0 1.844,0.373 1.097,1.097C0.374,1.843 0,2.706 0,3.757L0,16.242C0,17.293 0.374,18.156 1.097,18.903Z" style="fill:rgb(0,102,255);"/>
    <path id="Check" d="M3.251,9.458L4.53,8.248C4.69,8.1 4.896,8.035 5.124,8.035C5.329,8.035 5.535,8.1 5.694,8.248L8.367,10.753L14.305,5.234C14.465,5.084 14.671,5 14.876,5C15.104,5 15.31,5.084 15.47,5.234L16.749,6.443C16.908,6.592 17,6.762 17,6.974C17,7.165 16.908,7.356 16.749,7.505L8.938,14.766C8.778,14.915 8.595,15 8.367,15C8.162,15 7.956,14.915 7.796,14.766L3.251,10.541C3.092,10.393 3,10.201 3,9.989C3,9.798 3.092,9.607 3.251,9.458Z" style="fill:white;"/>
</svg>
