<?xml version="1.0" encoding="UTF-8" standalone="no"?>
<!DOCTYPE svg PUBLIC "-//W3C//DTD SVG 1.1//EN" "http://www.w3.org/Graphics/SVG/1.1/DTD/svg11.dtd">
<svg width="100%" height="100%" viewBox="0 0 16 16" version="1.1" xmlns="http://www.w3.org/2000/svg" xmlns:xlink="http://www.w3.org/1999/xlink" xml:space="preserve" style="fill-rule:evenodd;clip-rule:evenodd;stroke-linejoin:round;stroke-miterlimit:1.41421;">
    <path id="ic_globe" d="M3.977,14.935C5.209,15.645 6.553,16 8.009,16C9.446,16 10.791,15.645 12.023,14.935C13.237,14.226 14.208,13.255 14.935,12.023C15.645,10.791 16,9.466 16,8.009C16,6.553 15.645,5.209 14.935,3.995C14.208,2.763 13.237,1.792 12.023,1.082C10.791,0.354 9.446,0 8.009,0C6.553,0 5.209,0.354 3.977,1.082C2.763,1.792 1.792,2.763 1.064,3.995C0.354,5.209 0,6.553 0,8.009C0,9.466 0.354,10.791 1.064,12.023C1.792,13.255 2.763,14.226 3.977,14.935ZM4.798,2.165C4.835,2.147 4.928,2.147 5.041,2.147C5.096,2.165 5.134,2.184 5.19,2.203C5.246,2.24 5.283,2.277 5.339,2.315C5.395,2.371 5.432,2.408 5.451,2.427C5.47,2.39 5.451,2.315 5.414,2.24C5.414,2.184 5.489,2.147 5.638,2.109C5.787,2.091 5.899,2.091 5.956,2.128C5.899,2.054 5.843,1.979 5.731,1.867L5.694,1.904C5.638,1.867 5.489,1.886 5.246,1.979C5.246,1.997 5.209,2.016 5.153,2.035C5.096,2.072 5.041,2.091 5.003,2.109C4.966,2.128 4.928,2.128 4.892,2.128C5.227,1.941 5.545,1.792 5.862,1.698C5.881,1.698 5.918,1.736 5.974,1.773C6.011,1.829 6.049,1.867 6.086,1.886C6.068,1.867 6.049,1.867 6.049,1.904C6.011,1.979 6.011,2.054 6.049,2.109C6.086,2.165 6.124,2.184 6.179,2.184C6.236,2.203 6.31,2.203 6.404,2.184C6.478,2.165 6.534,2.165 6.572,2.165L6.665,2.165C6.889,2.184 6.982,2.165 6.926,2.109C6.945,2.128 6.982,2.203 7.001,2.277C7.019,2.371 7.057,2.427 7.094,2.464C7.132,2.427 7.132,2.39 7.113,2.315C7.094,2.24 7.094,2.203 7.113,2.165C7.132,2.165 7.15,2.147 7.169,2.128C7.206,2.109 7.244,2.109 7.3,2.091C7.337,2.072 7.375,2.054 7.393,2.054C7.43,2.016 7.393,1.979 7.3,1.904C7.281,1.886 7.262,1.886 7.206,1.867C7.169,1.848 7.132,1.848 7.094,1.829C7.057,1.811 7.019,1.792 6.982,1.773C6.945,1.755 6.926,1.718 6.926,1.68C6.945,1.661 6.964,1.624 6.982,1.568C7.038,1.53 7.094,1.512 7.187,1.53C7.281,1.53 7.355,1.55 7.412,1.587C7.598,1.68 7.617,1.773 7.486,1.867C7.561,1.867 7.636,1.886 7.748,1.941C7.841,1.997 7.879,2.035 7.859,2.091C7.916,1.997 7.972,1.941 8.027,1.941C8.065,1.941 8.084,1.997 8.121,2.091C8.158,2.165 8.177,2.222 8.177,2.222C8.233,2.296 8.289,2.315 8.345,2.277C8.401,2.24 8.457,2.165 8.513,2.091C8.569,2.016 8.606,1.979 8.625,1.979C8.551,1.96 8.532,1.923 8.588,1.904C8.7,1.829 8.794,1.829 8.868,1.848C8.905,1.867 8.924,1.886 8.962,1.941C9.017,2.072 9.017,2.128 8.924,2.128C8.999,2.184 9.017,2.24 8.999,2.333C8.999,2.408 8.942,2.445 8.849,2.445C8.812,2.445 8.756,2.427 8.7,2.39C8.625,2.352 8.569,2.333 8.551,2.333C8.513,2.333 8.457,2.352 8.401,2.39C8.363,2.427 8.326,2.483 8.289,2.576C8.252,2.651 8.195,2.707 8.177,2.744C8.065,2.856 7.897,2.894 7.654,2.856C7.673,2.856 7.673,2.875 7.636,2.931C7.617,2.969 7.58,3.005 7.543,3.062C7.505,3.117 7.468,3.137 7.468,3.155C7.412,3.23 7.375,3.305 7.337,3.398L7.337,3.528C7.318,3.603 7.318,3.677 7.3,3.715C7.375,3.696 7.449,3.734 7.486,3.845C7.523,3.939 7.523,3.995 7.486,3.995C7.729,3.958 7.916,3.977 8.102,4.032C8.345,4.126 8.494,4.219 8.513,4.313C8.569,4.238 8.663,4.238 8.83,4.294C8.887,4.331 8.942,4.443 8.999,4.611C9.017,4.723 9.073,4.798 9.13,4.873C9.204,4.966 9.26,4.985 9.353,4.947L9.372,4.928C9.409,4.91 9.428,4.891 9.446,4.891C9.466,4.873 9.484,4.854 9.503,4.835C9.521,4.835 9.54,4.817 9.54,4.798C9.54,4.779 9.54,4.76 9.521,4.76C9.466,4.723 9.428,4.649 9.409,4.592C9.391,4.517 9.391,4.443 9.428,4.387C9.446,4.368 9.503,4.313 9.596,4.275C9.689,4.219 9.745,4.163 9.764,4.107C9.782,4.013 9.764,3.939 9.652,3.883C9.559,3.809 9.503,3.771 9.503,3.715C9.503,3.677 9.54,3.641 9.577,3.584C9.634,3.547 9.652,3.491 9.634,3.454C9.634,3.435 9.634,3.398 9.596,3.323C9.577,3.248 9.559,3.211 9.559,3.173C9.559,3.155 9.577,3.117 9.614,3.062C9.652,3.043 9.764,3.043 9.951,3.08C10.138,3.099 10.249,3.137 10.306,3.173C10.324,3.192 10.361,3.211 10.436,3.23C10.511,3.267 10.567,3.286 10.623,3.323C10.679,3.36 10.697,3.379 10.717,3.416L10.66,3.416C10.697,3.454 10.735,3.51 10.753,3.566C10.753,3.622 10.735,3.659 10.66,3.677C10.717,3.677 10.772,3.677 10.828,3.715C10.94,3.752 10.94,3.79 10.847,3.827C10.865,3.827 10.903,3.809 10.94,3.809C10.978,3.809 10.996,3.79 11.015,3.771C11.033,3.771 11.053,3.752 11.071,3.734C11.089,3.715 11.108,3.715 11.127,3.715C11.127,3.696 11.146,3.696 11.164,3.696C11.183,3.696 11.202,3.696 11.239,3.715C11.239,3.715 11.257,3.696 11.276,3.659C11.295,3.622 11.332,3.584 11.351,3.566C11.389,3.528 11.407,3.51 11.425,3.51C11.444,3.51 11.463,3.51 11.482,3.528C11.5,3.547 11.519,3.566 11.519,3.584C11.538,3.603 11.557,3.641 11.557,3.659C11.575,3.677 11.575,3.696 11.594,3.715C11.594,3.752 11.631,3.79 11.687,3.827C11.743,3.864 11.761,3.902 11.78,3.939C11.799,3.958 11.799,4.013 11.818,4.088C11.836,4.181 11.874,4.238 11.911,4.256C11.948,4.294 11.986,4.313 12.061,4.331C12.079,4.349 12.116,4.349 12.154,4.331C12.21,4.313 12.247,4.313 12.284,4.313C12.303,4.331 12.322,4.349 12.322,4.406C12.359,4.368 12.397,4.331 12.397,4.313C12.397,4.406 12.415,4.481 12.452,4.536C12.49,4.592 12.546,4.611 12.639,4.611L12.621,4.835C12.601,4.873 12.546,4.891 12.452,4.91C12.378,4.928 12.322,4.947 12.303,4.966C12.284,4.966 12.229,5.022 12.154,5.096C12.079,5.171 12.042,5.209 12.061,5.227C11.93,5.096 11.761,5.059 11.519,5.115C11.257,5.153 11.071,5.19 10.978,5.227C10.865,5.283 10.791,5.339 10.753,5.395C10.753,5.395 10.735,5.414 10.717,5.47C10.697,5.507 10.679,5.545 10.66,5.582C10.642,5.619 10.623,5.638 10.623,5.638C10.66,5.619 10.697,5.582 10.753,5.526C10.81,5.47 10.847,5.432 10.847,5.432C11.033,5.321 11.183,5.264 11.295,5.302C11.463,5.358 11.482,5.414 11.37,5.47C11.37,5.489 11.332,5.489 11.276,5.489L11.146,5.489C11.202,5.507 11.257,5.526 11.295,5.545C11.351,5.582 11.351,5.619 11.332,5.657C11.444,5.713 11.463,5.787 11.389,5.862C11.314,5.956 11.202,5.993 11.071,5.974C11.089,5.974 11.089,5.993 11.071,6.011L10.903,6.124C10.884,6.142 10.847,6.161 10.753,6.179C10.679,6.217 10.642,6.235 10.604,6.272C10.585,6.31 10.567,6.347 10.567,6.404L10.567,6.534C10.548,6.553 10.529,6.553 10.474,6.553C10.455,6.59 10.399,6.628 10.287,6.646C10.175,6.665 10.1,6.702 10.081,6.758C10.119,6.814 10.119,6.87 10.063,6.926C9.988,7.001 9.913,6.982 9.839,6.908C9.802,6.908 9.782,6.944 9.764,7.001C9.745,7.057 9.727,7.094 9.689,7.112C9.745,7.206 9.727,7.244 9.671,7.281C9.671,7.281 9.689,7.3 9.708,7.3C9.745,7.318 9.764,7.337 9.802,7.355C9.82,7.375 9.839,7.393 9.839,7.393C9.82,7.449 9.782,7.486 9.727,7.486C9.764,7.598 9.727,7.711 9.577,7.841C9.54,7.879 9.503,7.897 9.446,7.934C9.391,7.953 9.334,7.99 9.278,8.009C9.241,8.027 9.204,8.027 9.204,8.047C9.13,8.102 9.073,8.158 9.036,8.233C9.017,8.289 8.999,8.363 9.036,8.42C9.055,8.494 9.11,8.532 9.223,8.551L9.223,8.812L9.241,8.905C9.241,8.942 9.26,8.998 9.26,9.036L9.26,9.185C9.26,9.241 9.241,9.278 9.204,9.278C9.185,9.278 9.148,9.278 9.092,9.26C9.036,9.223 8.98,9.073 8.905,8.794C8.887,8.737 8.849,8.644 8.774,8.551C8.737,8.588 8.7,8.606 8.681,8.625L8.625,8.625C8.625,8.606 8.606,8.606 8.569,8.569C8.551,8.551 8.513,8.532 8.494,8.513C8.457,8.494 8.401,8.476 8.326,8.457C8.233,8.457 8.177,8.438 8.158,8.42C7.99,8.532 7.897,8.513 7.859,8.326C7.841,8.345 7.841,8.401 7.859,8.457C7.879,8.513 7.879,8.551 7.879,8.551C7.841,8.644 7.766,8.662 7.654,8.588C7.617,8.532 7.523,8.532 7.375,8.569C7.225,8.588 7.132,8.606 7.076,8.588C7.076,8.588 7.094,8.588 7.113,8.606C7.132,8.625 7.15,8.644 7.15,8.644C7.15,8.662 7.132,8.681 7.132,8.7C7.113,8.719 7.094,8.719 7.076,8.719L7.038,8.719C7.019,8.719 7.001,8.737 6.982,8.737C6.964,8.756 6.926,8.794 6.889,8.849C6.851,8.905 6.814,8.924 6.796,8.942C6.833,9.055 6.851,9.148 6.851,9.204C6.851,9.26 6.833,9.353 6.814,9.466C6.796,9.577 6.796,9.671 6.796,9.727C6.796,9.839 6.833,9.97 6.889,10.119C6.964,10.268 7.038,10.361 7.132,10.417C7.169,10.455 7.262,10.474 7.375,10.474C7.486,10.474 7.58,10.474 7.617,10.455C7.673,10.436 7.691,10.417 7.729,10.38C7.748,10.361 7.766,10.306 7.766,10.268C7.785,10.212 7.804,10.175 7.804,10.156C7.859,10.025 7.934,9.951 8.065,9.951C8.158,9.932 8.215,9.951 8.252,9.97C8.289,9.988 8.308,10.025 8.308,10.063C8.289,10.119 8.289,10.156 8.27,10.193C8.233,10.249 8.215,10.287 8.177,10.343C8.158,10.399 8.14,10.455 8.121,10.474C8.121,10.529 8.102,10.604 8.084,10.716C8.084,10.81 8.065,10.865 8.065,10.885C8.084,10.903 8.121,10.903 8.215,10.903C8.215,10.885 8.233,10.865 8.233,10.828C8.252,10.81 8.252,10.791 8.252,10.772C8.289,10.828 8.345,10.865 8.42,10.865C8.494,10.885 8.551,10.847 8.588,10.791C8.606,10.81 8.644,10.865 8.719,10.94C8.774,11.033 8.812,11.089 8.83,11.146C8.83,11.183 8.849,11.22 8.868,11.295C8.887,11.351 8.887,11.389 8.887,11.425C8.887,11.444 8.849,11.463 8.774,11.463C8.756,11.463 8.737,11.463 8.737,11.482C8.719,11.5 8.719,11.538 8.737,11.557C8.737,11.593 8.737,11.631 8.756,11.65C8.774,11.687 8.774,11.706 8.794,11.743C8.812,11.78 8.83,11.799 8.83,11.799C8.942,12.023 9.11,12.097 9.334,11.986C9.334,12.191 9.278,12.303 9.185,12.322C9.13,12.34 9.073,12.303 8.999,12.21C8.924,12.135 8.905,12.061 8.924,12.004C8.924,12.042 8.905,12.079 8.849,12.097C8.812,12.061 8.756,12.004 8.663,11.948C8.569,11.874 8.513,11.836 8.476,11.78C8.457,11.761 8.438,11.743 8.42,11.706C8.401,11.668 8.363,11.612 8.326,11.557C8.289,11.482 8.27,11.425 8.252,11.389C8.233,11.351 8.233,11.314 8.233,11.314C8.102,11.37 7.916,11.332 7.673,11.201C7.617,11.164 7.543,11.089 7.449,10.978C7.355,10.865 7.244,10.81 7.15,10.828C7.113,10.828 7.057,10.847 7.001,10.847C6.945,10.865 6.889,10.885 6.851,10.885C6.814,10.885 6.758,10.865 6.683,10.847C6.628,10.828 6.553,10.772 6.46,10.716C6.366,10.66 6.31,10.623 6.272,10.604C6.254,10.604 6.198,10.567 6.142,10.529C6.068,10.511 6.011,10.474 5.974,10.455C5.936,10.436 5.881,10.399 5.843,10.361C5.787,10.306 5.768,10.268 5.75,10.212C5.731,10.175 5.713,10.081 5.694,9.97C5.675,9.839 5.657,9.745 5.619,9.689C5.582,9.634 5.507,9.559 5.432,9.484C5.358,9.409 5.283,9.391 5.227,9.391C5.283,9.391 5.283,9.334 5.227,9.241C5.171,9.148 5.134,9.073 5.078,9.036C5.078,9.017 5.022,8.98 4.966,8.905C4.892,8.83 4.835,8.756 4.779,8.7C4.742,8.644 4.686,8.588 4.649,8.513C4.63,8.438 4.611,8.383 4.63,8.326C4.649,8.326 4.63,8.308 4.611,8.289C4.592,8.289 4.574,8.27 4.536,8.252C4.499,8.252 4.481,8.233 4.443,8.215C4.424,8.215 4.406,8.195 4.387,8.195C4.406,8.233 4.424,8.289 4.424,8.363C4.443,8.42 4.462,8.476 4.499,8.513C4.499,8.551 4.555,8.644 4.667,8.812C4.854,9.11 4.928,9.334 4.91,9.466C4.873,9.484 4.854,9.466 4.835,9.446C4.817,9.409 4.817,9.372 4.798,9.334C4.798,9.278 4.798,9.241 4.779,9.223C4.76,9.185 4.705,9.13 4.611,9.092C4.536,9.036 4.481,8.998 4.462,8.942L4.481,8.942C4.499,8.924 4.499,8.924 4.518,8.924C4.518,8.868 4.481,8.774 4.406,8.681C4.313,8.588 4.294,8.513 4.294,8.476C4.238,8.438 4.2,8.345 4.163,8.233C4.107,8.102 4.088,8.027 4.051,7.99C4.032,7.953 3.995,7.916 3.939,7.879C3.902,7.859 3.845,7.822 3.79,7.785C3.734,7.748 3.696,7.711 3.659,7.711C3.659,7.691 3.622,7.673 3.584,7.617C3.36,7.337 3.286,7.187 3.379,7.169C3.286,7.187 3.211,7.112 3.155,6.964C3.099,6.796 3.08,6.683 3.099,6.608L3.08,6.59L3.08,6.347C3.08,6.217 3.099,6.086 3.117,5.974C3.137,5.862 3.155,5.806 3.211,5.806C3.155,5.806 3.117,5.768 3.099,5.675C3.08,5.582 3.08,5.526 3.099,5.489C3.099,5.47 3.137,5.47 3.192,5.526C3.248,5.582 3.267,5.6 3.286,5.619C3.379,5.563 3.398,5.507 3.379,5.432C3.379,5.414 3.305,5.339 3.174,5.209C2.875,5.022 2.707,4.928 2.707,4.928C2.744,4.854 2.744,4.798 2.669,4.742C2.613,4.779 2.576,4.779 2.558,4.76C2.539,4.742 2.539,4.705 2.539,4.649C2.52,4.592 2.501,4.574 2.483,4.555C2.445,4.555 2.408,4.517 2.352,4.481C2.969,3.491 3.79,2.726 4.798,2.165ZM9.204,14.17C9.26,14.077 9.298,14.02 9.298,13.965C9.185,13.946 9.148,13.852 9.167,13.703C9.185,13.591 9.278,13.461 9.466,13.274C9.596,13.162 9.652,12.994 9.596,12.769C9.577,12.695 9.559,12.565 9.54,12.378C9.521,12.21 9.521,12.079 9.503,12.023C9.503,12.042 9.54,12.061 9.596,12.079C9.671,12.097 9.708,12.116 9.727,12.135C9.727,12.116 9.745,12.079 9.764,12.023C9.802,11.967 9.82,11.929 9.839,11.911C9.857,11.874 9.876,11.855 9.932,11.818C9.97,11.799 10.007,11.78 10.007,11.761C10.025,11.761 10.063,11.743 10.1,11.706C10.156,11.668 10.193,11.631 10.231,11.612C10.249,11.593 10.306,11.575 10.343,11.557C10.399,11.557 10.436,11.575 10.455,11.612C10.492,11.65 10.492,11.725 10.436,11.799C10.399,11.893 10.399,11.948 10.436,11.986C10.455,11.967 10.455,11.911 10.455,11.855C10.474,11.78 10.492,11.725 10.529,11.687C10.567,11.65 10.604,11.631 10.642,11.612C10.679,11.612 10.717,11.612 10.753,11.631C10.772,11.65 10.81,11.687 10.847,11.706C10.903,11.743 10.94,11.761 10.978,11.761C11.071,11.799 11.202,11.874 11.351,12.004C11.332,11.986 11.332,11.986 11.351,11.967C11.351,11.967 11.37,11.948 11.389,11.948C11.407,11.929 11.425,11.911 11.444,11.911C11.463,11.893 11.482,11.893 11.5,11.874L11.538,11.874C11.575,11.874 11.612,11.874 11.631,11.855C11.65,11.855 11.687,11.855 11.725,11.874C11.761,11.911 11.799,11.911 11.799,11.929C11.818,11.948 11.836,11.967 11.874,11.986C11.911,12.023 11.93,12.042 11.948,12.042C11.967,12.061 12.004,12.079 12.061,12.116C12.116,12.154 12.172,12.191 12.191,12.21C12.229,12.229 12.247,12.265 12.284,12.303C12.303,12.34 12.303,12.378 12.303,12.433C12.34,12.433 12.433,12.471 12.546,12.508C12.583,12.527 12.621,12.546 12.676,12.546C12.751,12.565 12.789,12.583 12.807,12.601C11.799,13.666 10.585,14.319 9.167,14.562C9.148,14.506 9.13,14.45 9.13,14.394C9.13,14.356 9.148,14.282 9.204,14.17Z" style="fill:#939393;"/>
</svg>
