<?xml version="1.0" encoding="UTF-8" standalone="no"?>
<!DOCTYPE svg PUBLIC "-//W3C//DTD SVG 1.1//EN" "http://www.w3.org/Graphics/SVG/1.1/DTD/svg11.dtd">
<svg width="100%" height="100%" viewBox="0 0 16 18" version="1.1" xmlns="http://www.w3.org/2000/svg" xmlns:xlink="http://www.w3.org/1999/xlink" xml:space="preserve" style="fill-rule:evenodd;clip-rule:evenodd;stroke-linejoin:round;stroke-miterlimit:1.41421;">
    <path id="trash" d="M0.102,4.395C0.163,4.458 0.265,4.5 0.367,4.5L1.447,4.5L1.447,15.665C1.447,16.297 1.631,16.865 1.977,17.306C2.344,17.769 2.772,18 3.261,18L12.739,18C13.228,18 13.656,17.769 14.023,17.285C14.369,16.822 14.553,16.255 14.553,15.603L14.553,4.5L15.633,4.5C15.735,4.5 15.837,4.458 15.898,4.395C15.959,4.332 16,4.227 16,4.121L16,3.386C16,3.281 15.959,3.175 15.898,3.112C15.837,3.049 15.735,3.007 15.633,3.007L12.127,3.007L11.333,1.052C11.231,0.757 11.007,0.505 10.721,0.316C10.415,0.105 10.13,0 9.824,0L6.176,0C5.87,0 5.585,0.105 5.279,0.316C4.993,0.505 4.769,0.757 4.667,1.052L3.873,3.007L0.367,3.007C0.265,3.007 0.163,3.049 0.102,3.112C0.041,3.175 0,3.281 0,3.386L0,4.121C0,4.227 0.041,4.332 0.102,4.395ZM2.894,4.5L13.106,4.5L13.106,15.623C13.106,15.792 13.085,15.939 13.024,16.086C12.963,16.233 12.923,16.338 12.861,16.402C12.8,16.465 12.759,16.507 12.739,16.507L3.261,16.507C3.241,16.507 3.2,16.465 3.139,16.402C3.077,16.338 3.037,16.233 2.976,16.086C2.915,15.939 2.894,15.792 2.894,15.623L2.894,4.5ZM4.464,14.152C4.525,14.214 4.627,14.256 4.728,14.256L5.442,14.256C5.544,14.256 5.645,14.214 5.707,14.152C5.768,14.089 5.809,13.984 5.809,13.878L5.809,7.128C5.809,7.023 5.768,6.918 5.707,6.856C5.645,6.792 5.544,6.75 5.442,6.75L4.728,6.75C4.627,6.75 4.525,6.792 4.464,6.856C4.402,6.918 4.361,7.023 4.361,7.128L4.361,13.878C4.361,13.984 4.402,14.089 4.464,14.152ZM6.013,1.619C6.053,1.556 6.115,1.514 6.197,1.493L9.803,1.493C9.885,1.514 9.947,1.556 10.008,1.619L10.558,3.007L5.442,3.007L6.013,1.619ZM7.378,14.152C7.44,14.214 7.541,14.256 7.643,14.256L8.357,14.256C8.459,14.256 8.56,14.214 8.622,14.152C8.683,14.089 8.724,13.984 8.724,13.878L8.724,7.128C8.724,7.023 8.683,6.918 8.622,6.856C8.56,6.792 8.459,6.75 8.357,6.75L7.643,6.75C7.541,6.75 7.44,6.792 7.378,6.856C7.317,6.918 7.276,7.023 7.276,7.128L7.276,13.878C7.276,13.984 7.317,14.089 7.378,14.152ZM10.293,14.152C10.354,14.214 10.456,14.256 10.558,14.256L11.271,14.256C11.373,14.256 11.475,14.214 11.536,14.152C11.598,14.089 11.639,13.984 11.639,13.878L11.639,7.128C11.639,7.023 11.598,6.918 11.536,6.856C11.475,6.792 11.373,6.75 11.271,6.75L10.558,6.75C10.456,6.75 10.354,6.792 10.293,6.856C10.232,6.918 10.191,7.023 10.191,7.128L10.191,13.878C10.191,13.984 10.232,14.089 10.293,14.152Z" style="fill:white;"/>
</svg>
