<?xml version="1.0" encoding="UTF-8" standalone="no"?>
<!DOCTYPE svg PUBLIC "-//W3C//DTD SVG 1.1//EN" "http://www.w3.org/Graphics/SVG/1.1/DTD/svg11.dtd">
<svg width="100%" height="100%" viewBox="0 0 13 8" version="1.1" xmlns="http://www.w3.org/2000/svg" xmlns:xlink="http://www.w3.org/1999/xlink" xml:space="preserve" style="fill-rule:evenodd;clip-rule:evenodd;stroke-linejoin:round;stroke-miterlimit:1.41421;">
    <g transform="matrix(1.03983,-2.87356e-18,2.87356e-18,-1.0281,-0.24956,8.0562)">
        <path style="fill:#ffffff;" d="M0.374,1.866L6.21,7.701C6.277,7.791 6.39,7.836 6.479,7.836C6.592,7.836 6.704,7.791 6.771,7.701L12.607,1.866C12.697,1.776 12.742,1.686 12.742,1.574C12.742,1.484 12.697,1.372 12.607,1.282L11.979,0.676C11.911,0.586 11.799,0.541 11.709,0.541C11.597,0.541 11.485,0.586 11.418,0.676L6.479,5.592L1.564,0.676C1.474,0.586 1.384,0.541 1.272,0.541C1.16,0.541 1.07,0.586 0.98,0.676L0.374,1.282C0.284,1.372 0.24,1.484 0.24,1.574C0.24,1.686 0.284,1.776 0.374,1.866Z" />
    </g>
</svg>
