<?xml version="1.0" standalone="no"?>
<!DOCTYPE svg PUBLIC "-//W3C//DTD SVG 1.1//EN" "http://www.w3.org/Graphics/SVG/1.1/DTD/svg11.dtd">
<svg width="100%" height="100%" viewBox="0 0 21 20" version="1.1" xmlns="http://www.w3.org/2000/svg" xmlns:xlink="http://www.w3.org/1999/xlink" xml:space="preserve" style="fill-rule:evenodd;clip-rule:evenodd;stroke-linejoin:round;stroke-miterlimit:1.41421;">
    <g id="ic_iframe_code" transform="matrix(0.235801,-5.791e-17,5.77547e-17,0.236435,-1.10331,-1.79145)">
        <path style="fill:#535353;fill-rule:nonzero;" d="M44.567,81.571C44.088,83.15 42.296,84.058 40.717,83.58L36.777,82.416C35.198,81.937 34.239,80.239 34.717,78.66L54.377,18.172C54.856,16.593 56.648,15.685 58.227,16.163L62.167,17.328C63.746,17.807 64.705,19.504 64.227,21.083L44.567,81.571ZM30.5,68.494C31.556,69.762 31.41,71.663 30.143,72.72L27.28,75.281C26.012,76.338 24.399,76.165 23.343,74.897L5.207,51.536C4.503,50.691 4.503,49.308 5.207,48.464L23.345,25.104C24.401,23.836 26.015,23.664 27.282,24.72L30.144,27.281C31.412,28.338 31.557,30.239 30.501,31.507L16.142,50L30.5,68.494ZM82.274,50L67.915,31.506C66.859,30.238 67.005,28.337 68.272,27.28L71.134,24.719C72.402,23.662 74.015,23.835 75.071,25.103L93.209,48.463C93.913,49.308 93.913,50.691 93.209,51.535L75.073,74.895C74.017,76.163 72.403,76.335 71.136,75.279L68.273,72.718C67.005,71.661 66.86,69.76 67.916,68.492L82.274,50Z" />
    </g>
</svg>
