<?xml version="1.0" encoding="UTF-8" standalone="no"?>
<!DOCTYPE svg PUBLIC "-//W3C//DTD SVG 1.1//EN" "http://www.w3.org/Graphics/SVG/1.1/DTD/svg11.dtd">
<svg width="100%" height="100%" viewBox="0 0 22 17" version="1.1" xmlns="http://www.w3.org/2000/svg" xmlns:xlink="http://www.w3.org/1999/xlink" xml:space="preserve" style="fill-rule:evenodd;clip-rule:evenodd;stroke-linejoin:round;stroke-miterlimit:1.41421;">
    <g transform="matrix(1.13443,-5.4615e-32,-5.42342e-32,1.1424,-0.895065,-1.06129)">
        <path style="fill:#0066ff;" d="M1.126,9.234L7.366,15.474C7.59,15.698 7.882,15.81 8.219,15.81C8.556,15.81 8.847,15.698 9.072,15.474L19.846,4.7C20.07,4.453 20.182,4.184 20.182,3.847C20.182,3.51 20.07,3.218 19.846,2.994L18.14,1.288C17.915,1.041 17.624,0.929 17.287,0.929C16.95,0.929 16.658,1.041 16.434,1.288L8.219,9.503L4.538,5.822C4.313,5.575 4.022,5.463 3.685,5.463C3.348,5.463 3.056,5.575 2.832,5.822L1.126,7.528C0.902,7.752 0.789,8.044 0.789,8.381C0.789,8.718 0.902,8.987 1.126,9.234Z" />
    </g>
</svg>
