<?xml version="1.0" standalone="no"?>
<!DOCTYPE svg PUBLIC "-//W3C//DTD SVG 1.1//EN" "http://www.w3.org/Graphics/SVG/1.1/DTD/svg11.dtd">
<svg width="100%" height="100%" viewBox="0 0 20 20" version="1.1" xmlns="http://www.w3.org/2000/svg" xmlns:xlink="http://www.w3.org/1999/xlink" xml:space="preserve" style="fill-rule:evenodd;clip-rule:evenodd;stroke-linejoin:round;stroke-miterlimit:1.41421;">
    <g transform="matrix(1,0,0,1,-9,-6)">
        <path d="M10.367,14.625C10.597,14.882 10.894,15 11.238,15L13.692,15C14.013,15 14.311,14.882 14.54,14.625C14.792,14.392 14.907,14.088 14.907,13.738L14.907,11.239C14.907,10.911 14.792,10.608 14.54,10.374C14.311,10.117 14.013,10 13.692,10L11.238,10C10.894,10 10.597,10.117 10.367,10.374C10.114,10.608 10,10.911 10,11.239L10,13.738C10,14.088 10.114,14.392 10.367,14.625ZM16.925,14.625C17.154,14.882 17.452,15 17.796,15L20.249,15C20.57,15 20.868,14.882 21.098,14.625C21.351,14.392 21.465,14.088 21.465,13.738L21.465,11.239C21.465,10.911 21.351,10.608 21.098,10.374C20.868,10.117 20.57,10 20.249,10L17.796,10C17.452,10 17.154,10.117 16.925,10.374C16.673,10.608 16.557,10.911 16.557,11.239L16.557,13.738C16.557,14.088 16.673,14.392 16.925,14.625ZM23.46,14.625C23.689,14.882 23.987,15 24.332,15L26.784,15C27.105,15 27.403,14.882 27.633,14.625C27.886,14.392 28,14.088 28,13.738L28,11.239C28,10.911 27.886,10.608 27.633,10.374C27.403,10.117 27.105,10 26.784,10L24.332,10C23.987,10 23.689,10.117 23.46,10.374C23.208,10.608 23.092,10.911 23.092,11.239L23.092,13.738C23.092,14.088 23.208,14.392 23.46,14.625Z" style="fill:white;"/>
    </g>
    <g transform="matrix(1,0,0,1,-9,0)">
        <path d="M10.367,14.625C10.597,14.882 10.894,15 11.238,15L13.692,15C14.013,15 14.311,14.882 14.54,14.625C14.792,14.392 14.907,14.088 14.907,13.738L14.907,11.239C14.907,10.911 14.792,10.608 14.54,10.374C14.311,10.117 14.013,10 13.692,10L11.238,10C10.894,10 10.597,10.117 10.367,10.374C10.114,10.608 10,10.911 10,11.239L10,13.738C10,14.088 10.114,14.392 10.367,14.625ZM16.925,14.625C17.154,14.882 17.452,15 17.796,15L20.249,15C20.57,15 20.868,14.882 21.098,14.625C21.351,14.392 21.465,14.088 21.465,13.738L21.465,11.239C21.465,10.911 21.351,10.608 21.098,10.374C20.868,10.117 20.57,10 20.249,10L17.796,10C17.452,10 17.154,10.117 16.925,10.374C16.673,10.608 16.557,10.911 16.557,11.239L16.557,13.738C16.557,14.088 16.673,14.392 16.925,14.625ZM23.46,14.625C23.689,14.882 23.987,15 24.332,15L26.784,15C27.105,15 27.403,14.882 27.633,14.625C27.886,14.392 28,14.088 28,13.738L28,11.239C28,10.911 27.886,10.608 27.633,10.374C27.403,10.117 27.105,10 26.784,10L24.332,10C23.987,10 23.689,10.117 23.46,10.374C23.208,10.608 23.092,10.911 23.092,11.239L23.092,13.738C23.092,14.088 23.208,14.392 23.46,14.625Z" style="fill:white;"/>
    </g>
</svg>
