<?xml version="1.0" encoding="UTF-8" standalone="no"?>
<!DOCTYPE svg PUBLIC "-//W3C//DTD SVG 1.1//EN" "http://www.w3.org/Graphics/SVG/1.1/DTD/svg11.dtd">
<svg width="100%" height="100%" viewBox="0 0 20 22" version="1.1" xmlns="http://www.w3.org/2000/svg" xmlns:xlink="http://www.w3.org/1999/xlink" xml:space="preserve" style="fill-rule:evenodd;clip-rule:evenodd;stroke-linejoin:round;stroke-miterlimit:1.41421;">
    <path style="fill:#2475ff;" d="M14.353,15.219C14.772,16.097 14.982,16.951 14.982,17.756C14.982,18.8 14.843,19.629 14.539,20.221C14.236,20.838 13.793,21.288 13.21,21.573C12.626,21.857 11.972,22 11.249,22C10.806,22 10.409,21.834 10.082,21.501C9.779,21.217 9.546,20.861 9.381,20.435C9.195,19.985 9.079,19.581 9.008,19.227C8.938,18.871 8.845,18.491 8.775,18.112C8.706,17.732 8.588,17.448 8.402,17.259C8.005,16.808 5.915,12.438 5.915,12L5.915,3.352C5.915,2.902 6.077,2.497 6.406,2.167C6.755,1.816 8.068,0.881 8.459,0.747C9.06,0.557 9.613,0.399 10.105,0.284C10.945,0.095 11.809,0 12.719,0L14.189,0C15.402,0 16.383,0.356 17.129,1.043C17.877,1.731 18.25,2.678 18.25,3.888L18.25,3.96C18.764,4.623 19.021,5.429 19.021,6.306C19.021,6.495 18.997,6.686 18.974,6.875C19.323,7.467 19.487,8.108 19.487,8.795C19.487,9.103 19.441,9.412 19.37,9.696C19.79,10.36 20,11.071 20,11.877C20,12.778 19.674,13.56 18.997,14.224C18.344,14.888 17.573,15.219 16.664,15.219L14.353,15.219ZM3.283,13.537L1.657,13.537C1.214,13.537 0.817,13.371 0.491,13.038C0.163,12.707 0,12.303 0,11.853L0,3.366C0,2.916 0.163,2.513 0.491,2.181C0.817,1.849 1.19,1.684 1.657,1.684L3.283,1.684C3.75,1.684 4.124,1.849 4.45,2.181C4.778,2.513 4.941,2.916 4.941,3.366L4.941,11.853C4.941,12.303 4.778,12.707 4.45,13.038C4.124,13.371 3.727,13.537 3.283,13.537ZM2.497,3.366C2.73,3.366 2.917,3.461 3.081,3.627C3.244,3.793 3.337,3.983 3.337,4.219C3.337,4.433 3.244,4.646 3.081,4.813C2.917,4.979 2.73,5.073 2.497,5.073C2.265,5.073 2.077,4.979 1.914,4.813C1.751,4.646 1.657,4.433 1.657,4.219C1.657,3.983 1.751,3.793 1.914,3.627C2.077,3.461 2.265,3.366 2.497,3.366Z" />
</svg>
