<?xml version="1.0" encoding="UTF-8" standalone="no"?>
<!DOCTYPE svg PUBLIC "-//W3C//DTD SVG 1.1//EN" "http://www.w3.org/Graphics/SVG/1.1/DTD/svg11.dtd">
<svg width="100%" height="100%" viewBox="0 0 20 22" version="1.1" xmlns="http://www.w3.org/2000/svg" xmlns:xlink="http://www.w3.org/1999/xlink" xml:space="preserve" style="fill-rule:evenodd;clip-rule:evenodd;stroke-linejoin:round;stroke-miterlimit:1.41421;">
    <g transform="matrix(1.03972,-4.02953e-18,-4.02953e-18,1.05617,-0.902475,-0.31157)">
        <path style="fill:#2475ff;" d="M1.34,19.06C1.654,19.374 2.013,19.531 2.462,19.531L6.076,19.531C6.255,19.531 6.839,19.688 7.804,20.025C8.837,20.384 9.734,20.653 10.52,20.855C11.283,21.035 12.069,21.125 12.877,21.125L14.493,21.125C15.66,21.125 16.625,20.788 17.343,20.115C18.062,19.441 18.398,18.543 18.398,17.376C18.892,16.748 19.139,15.985 19.139,15.154C19.139,14.974 19.117,14.795 19.094,14.615C19.431,14.054 19.588,13.448 19.588,12.797C19.588,12.505 19.543,12.214 19.476,11.944C19.902,11.316 20.104,10.642 20.104,9.879C20.104,9.026 19.79,8.286 19.139,7.657C18.511,7.029 17.77,6.714 16.895,6.714L14.673,6.714C15.076,5.884 15.278,5.076 15.278,4.29C15.278,3.325 15.144,2.54 14.852,1.978C14.56,1.395 14.134,0.968 13.573,0.699C13.012,0.43 12.383,0.295 11.687,0.295C11.261,0.295 10.879,0.452 10.565,0.766C10.206,1.103 9.959,1.552 9.824,2.113C9.689,2.674 9.555,3.191 9.443,3.707C9.33,4.201 9.151,4.56 8.949,4.762C8.545,5.211 8.096,5.749 7.624,6.378C6.772,7.455 6.188,8.106 5.896,8.308L2.462,8.308C2.036,8.308 1.654,8.465 1.34,8.779C1.025,9.094 0.868,9.475 0.868,9.902L0.868,17.937C0.868,18.364 1.025,18.745 1.34,19.06ZM3.27,16.321C3.494,16.321 3.674,16.411 3.831,16.568C3.988,16.725 4.078,16.927 4.078,17.129C4.078,17.354 3.988,17.533 3.831,17.69C3.674,17.848 3.494,17.937 3.27,17.937C3.046,17.937 2.866,17.848 2.709,17.69C2.552,17.533 2.462,17.354 2.462,17.129C2.462,16.927 2.552,16.725 2.709,16.568C2.866,16.411 3.046,16.321 3.27,16.321ZM5.672,9.902L6.076,9.902C6.21,9.902 6.368,9.857 6.525,9.79C6.682,9.722 6.861,9.61 7.041,9.453C7.198,9.296 7.378,9.161 7.535,9.004C7.669,8.869 7.849,8.69 8.029,8.465C8.208,8.241 8.365,8.061 8.477,7.927C8.567,7.792 8.702,7.635 8.859,7.433C9.039,7.208 9.128,7.096 9.151,7.051C9.622,6.49 9.959,6.108 10.138,5.906C10.475,5.547 10.722,5.098 10.857,4.537C10.991,3.999 11.126,3.46 11.238,2.966C11.373,2.472 11.53,2.113 11.732,1.889C12.518,1.889 13.034,2.091 13.303,2.472C13.55,2.876 13.685,3.482 13.685,4.29C13.685,4.784 13.483,5.458 13.079,6.31C12.675,7.163 12.473,7.814 12.473,8.308L16.895,8.308C17.321,8.308 17.703,8.465 18.017,8.779C18.354,9.116 18.511,9.475 18.511,9.902C18.511,10.194 18.421,10.53 18.241,10.912C18.039,11.293 17.815,11.496 17.546,11.518C17.68,11.653 17.77,11.855 17.86,12.101C17.949,12.371 17.994,12.595 17.994,12.797C17.994,13.381 17.77,13.875 17.321,14.301C17.478,14.57 17.546,14.862 17.546,15.154C17.546,15.468 17.478,15.783 17.321,16.074C17.186,16.389 16.984,16.613 16.738,16.748C16.782,16.995 16.805,17.219 16.805,17.443C16.805,18.835 15.997,19.531 14.403,19.531L12.877,19.531C11.799,19.531 10.363,19.217 8.612,18.611C8.567,18.611 8.433,18.566 8.231,18.498C8.029,18.431 7.894,18.364 7.804,18.341C7.692,18.296 7.557,18.252 7.355,18.184C7.153,18.139 6.996,18.094 6.884,18.05C6.749,18.027 6.615,18.005 6.457,17.982C6.323,17.96 6.188,17.937 6.076,17.937L5.672,17.937L5.672,9.902Z" />
    </g>
</svg>
