<svg xmlns="http://www.w3.org/2000/svg" width="100" height="100" viewBox="0 0 88 90" version="1.1" xml:space="preserve" stroke-linejoin="round"><g transform="matrix(1.04895,0,0,1.04895,-8.4965,-7.44755)"><path d="M12.9 30.9L12.9 82.4C12.9 84.1 14 85.6 15.2 86.6 16.2 87.4 17.2 88.1 18.6 88.1L48.1 88.1C48.7 89.9 49.8 91.4 51 92.9L18.6 92.9C16 92.9 13.9 92 12 90.4 9.6 88.5 8.1 85.7 8.1 82.4L8.1 29C8.1 28.4 9.5 26.7 10 26.2L28.1 9C28.5 8.6 30.4 7.1 31 7.1L65.7 7.1C68.3 7.1 70.6 8 72.5 9.6 74.9 11.5 76.7 14.5 76.7 17.8L76.7 49.4C76.6 49.5 75.1 50.1 73.9 51 72 52.2 71 52.9 71 52.9L71 17.6C71 15.9 70.6 14.4 69.4 13.4 68.4 12.6 66.7 11.9 65.3 11.9L32.9 11.9 32.9 20.4C32.9 26.2 28.2 30.9 22.4 30.9L12.9 30.9 12.9 30.9ZM55.4 90C59.1 93.7 65.1 93.6 68.7 90L76 82.7C73.9 83 71.7 82.7 69.7 81.8L65.1 86.4C63.4 88.1 60.7 88.1 59 86.4 57.3 84.7 57.3 82 59 80.3L67 72.3C68.7 70.6 71.4 70.6 73.1 72.3 73.2 72.4 73.3 72.5 73.4 72.6 74.1 73 75.1 72.9 75.7 72.3L77.9 70.1C77.6 69.6 77.2 69.1 76.7 68.7 73 65 67.1 65 63.4 68.6L55.4 76.6C51.7 80.3 51.7 86.3 55.4 90 55.3 90 55.4 90 55.4 90ZM89.2 56.3C89.2 56.3 89.1 56.2 89.2 56.3 89.1 56.2 89.1 56.2 89.2 56.3 85.5 52.6 79.5 52.6 75.8 56.3L68.5 63.6C70.6 63.3 72.8 63.6 74.8 64.5L79.4 59.9C81.1 58.2 83.8 58.2 85.5 59.9 87.2 61.6 87.2 64.3 85.5 66L77.5 74C75.8 75.7 73.1 75.7 71.4 74 71.3 73.9 71.2 73.8 71.1 73.7 70.4 73.3 69.4 73.4 68.8 74L66.6 76.2C66.9 76.7 67.3 77.2 67.8 77.6 71.5 81.2 77.4 81.2 81.1 77.5L89.1 69.5C92.8 65.9 92.8 59.9 89.2 56.3Z" fill="rgb(36,117,255)"/></g></svg>