<svg xmlns="http://www.w3.org/2000/svg" width="100" height="100" viewBox="0 0 118 100" version="1.1" xml:space="preserve" stroke-linejoin="round"><path d="M6.5 100L1.5 100C0.7 100 0 99.3 0 98.5L0 93.5C0 92.7 0.7 92 1.5 92 2.3 92 3 92.7 3 93.5L3 97 6.5 97C7.3 97 8 97.7 8 98.5 8 99.3 7.3 100 6.5 100ZM116.5 100L111.5 100C110.7 100 110 99.3 110 98.5 110 97.7 110.7 97 111.5 97L115 97 115 93.5C115 92.7 115.7 92 116.5 92 117.3 92 118 92.7 118 93.5L118 98.5C118 99.3 117.3 100 116.5 100ZM102.5 100L92.5 100C91.7 100 91 99.3 91 98.5 91 97.7 91.7 97 92.5 97L102.5 97C103.3 97 104 97.7 104 98.5 104 99.3 103.3 100 102.5 100ZM83.5 100L73.5 100C72.6 100 72 99.3 72 98.5 72 97.7 72.6 97 73.5 97L83.5 97C84.3 97 85 97.7 85 98.5 85 99.3 84.3 100 83.5 100ZM63.5 100L54.5 100C53.7 100 53 99.3 53 98.5 53 97.7 53.7 97 54.5 97L63.5 97C64.3 97 65 97.7 65 98.5 65 99.3 64.3 100 63.5 100ZM44.5 100L34.5 100C33.7 100 33 99.3 33 98.5 33 97.7 33.7 97 34.5 97L44.5 97C45.3 97 46 97.7 46 98.5 46 99.3 45.3 100 44.5 100ZM25.5 100L15.5 100C14.7 100 14 99.3 14 98.5 14 97.7 14.7 97 15.5 97L25.5 97C26.3 97 27 97.7 27 98.5 27 99.3 26.3 100 25.5 100ZM116.5 86C115.7 86 115 85.3 115 84.5L115 74.5C115 73.7 115.7 73 116.5 73 117.3 73 118 73.7 118 74.5L118 84.5C118 85.3 117.3 86 116.5 86ZM1.5 86C0.7 86 0 85.3 0 84.5L0 74.5C0 73.7 0.7 73 1.5 73 2.3 73 3 73.7 3 74.5L3 84.5C3 85.3 2.3 86 1.5 86ZM73.4 79L72.7 77 72.6 77C72.5 76 68.1 63.9 68.1 63.9 67.9 63.4 68 62.8 68.4 62.5 68.8 62.1 69.4 61.9 69.9 62.1L82 66.1 82 42 71 42C69.6 42 69 41.5 69 40L69 29 44 29 44 79 73.4 79ZM116.5 67C115.7 67 115 66.3 115 65.5L115 55.5C115 54.7 115.7 54 116.5 54 117.3 54 118 54.7 118 55.5L118 65.5C118 66.3 117.3 67 116.5 67ZM1.5 66C0.7 66 0 65.3 0 64.5L0 55.5C0 54.7 0.7 54 1.5 54 2.3 54 3 54.7 3 55.5L3 64.5C3 65.3 2.3 66 1.5 66ZM64 24L64 18 53 18C51.6 18 51 17.5 51 16L51 5 26 5 26 55 39 55 39 27C39 25.5 40.5 24 42 24L64 24ZM116.5 47C115.7 47 115 46.3 115 45.5L115 35.5C115 34.7 115.7 34 116.5 34 117.3 34 118 34.7 118 35.5L118 45.5C118 46.3 117.3 47 116.5 47ZM1.5 47C0.7 47 0 46.3 0 45.5L0 35.5C0 34.7 0.7 34 1.5 34 2.3 34 3 34.7 3 35.5L3 45.5C3 46.3 2.3 47 1.5 47ZM1.5 27.5C0.7 27.5 0 26.8 0 26L0 21.5C0 20.7 0.7 20 1.5 20L6 20C6.8 20 7.5 20.7 7.5 21.5 7.5 22.3 6.8 23 6 23L3 23 3 26C3 26.8 2.3 27.5 1.5 27.5ZM116.5 27C115.7 27 115 26.3 115 25.5L115 23 111.5 23C110.7 23 110 22.3 110 21.5 110 20.7 110.7 20 111.5 20L116.6 20C117.4 20 118 20.7 118 21.5L118 25.5C118 26.3 117.3 27 116.5 27ZM69.7 24L71 24C71.9 24 72.7 24.7 73 25 86 37.9 86 37.9 86 38 86.3 38.4 87 39.1 87 40L87 67.8 97.9 71.4C98.4 71.5 98.8 72 98.8 72.6 98.8 73.1 98.5 73.6 98 73.9L90.5 77.4 100.6 87.3C100.9 87.5 101 87.9 101 88.2 101 88.6 100.8 88.9 100.6 89.2L96 93.6C95.8 93.8 95.7 93.9 95.5 93.9L95.5 93.9C95.5 93.9 95.4 93.9 95.4 93.9 95.3 94 95.3 94 95.3 94 95.2 94 95.1 94 95 94 94.7 94 94.3 93.9 94 93.6L84.1 84C84.1 84 84 84 84 84L83.8 84 80.2 91.1C80 91.6 79.5 91.9 78.9 91.9 78.3 91.8 77.8 91.5 77.6 91L75.2 84 42 84C40.5 84 39 82.5 39 81L39 60 24 60C22.5 60 21 58.5 21 57L21 23 14.5 23C13.7 23 13 22.3 13 21.5 13 20.7 13.7 20 14.5 20L21 20 21 3C21 1.5 22.5 0 24 0L53 0C53.9 0 54.7 0.7 55 1 68 13.9 68 13.9 68 14 68.3 14.4 69 15.1 69 16L69.7 24ZM102.5 20L92.5 20C91.7 20 91 20.7 91 21.5 91 22.3 91.7 23 92.5 23L102.5 23C103.3 23 104 22.3 104 21.5 104 20.7 103.3 20 102.5 20ZM83.5 20L73.5 20C72.7 20 72 20.7 72 21.5 72 22.3 72.7 23 73.5 23L83.5 23C84.3 23 85 22.3 85 21.5 85 20.7 84.3 20 83.5 20Z" fill="rgb(36,117,255)"/></svg>