<?xml version="1.0" encoding="UTF-8" standalone="no"?>
<!DOCTYPE svg PUBLIC "-//W3C//DTD SVG 1.1//EN" "http://www.w3.org/Graphics/SVG/1.1/DTD/svg11.dtd">
<svg width="100%" height="100%" viewBox="0 0 20 17" version="1.1" xmlns="http://www.w3.org/2000/svg" xmlns:xlink="http://www.w3.org/1999/xlink" xml:space="preserve" style="fill-rule:evenodd;clip-rule:evenodd;stroke-linejoin:round;stroke-miterlimit:1.41421;">
    <g id="ic_quote" transform="matrix(0.959141,0,0,0.96361,-0.0642624,-0.852794)">
        <path d="M0.763,17.831C1.234,18.303 1.795,18.527 2.469,18.527L7.295,18.527C7.968,18.527 8.529,18.303 9.001,17.831C9.472,17.36 9.696,16.799 9.696,16.125L9.696,11.299C9.696,10.626 9.472,10.065 9.001,9.594C8.529,9.122 7.968,8.898 7.295,8.898L4.489,8.898C4.152,8.898 3.86,8.786 3.636,8.539C3.389,8.314 3.277,8.022 3.277,7.686L3.277,7.304C3.277,6.406 3.591,5.666 4.219,5.037C4.848,4.409 5.589,4.094 6.487,4.094L7.272,4.094C7.497,4.094 7.676,4.005 7.833,3.847C7.99,3.69 8.08,3.511 8.08,3.286L8.103,1.693C8.103,1.468 8.013,1.289 7.856,1.132C7.699,0.974 7.497,0.885 7.295,0.885L6.487,0.885C5.611,0.885 4.781,1.064 3.995,1.401C3.21,1.738 2.514,2.187 1.952,2.77C1.369,3.331 0.92,4.027 0.583,4.813C0.247,5.598 0.067,6.429 0.067,7.304L0.067,16.125C0.067,16.799 0.292,17.36 0.763,17.831ZM11.986,17.831C12.457,18.303 13.018,18.527 13.692,18.527L18.517,18.527C19.191,18.527 19.752,18.303 20.223,17.831C20.695,17.36 20.919,16.799 20.919,16.125L20.919,11.299C20.919,10.626 20.695,10.065 20.223,9.594C19.752,9.122 19.191,8.898 18.517,8.898L15.712,8.898C15.375,8.898 15.083,8.786 14.859,8.539C14.612,8.314 14.5,8.022 14.5,7.686L14.5,7.304C14.5,6.406 14.814,5.666 15.442,5.037C16.071,4.409 16.812,4.094 17.709,4.094L18.495,4.094C18.719,4.094 18.899,4.005 19.056,3.847C19.213,3.69 19.303,3.511 19.303,3.286L19.326,1.693C19.326,1.468 19.236,1.289 19.079,1.132C18.921,0.974 18.719,0.885 18.517,0.885L17.709,0.885C16.834,0.885 16.004,1.064 15.218,1.401C14.432,1.738 13.737,2.187 13.175,2.77C12.592,3.331 12.143,4.027 11.806,4.813C11.469,5.598 11.29,6.429 11.29,7.304L11.29,16.125C11.29,16.799 11.514,17.36 11.986,17.831Z"/>
    </g>
</svg>
