<?xml version="1.0" encoding="UTF-8" standalone="no"?>
<!DOCTYPE svg PUBLIC "-//W3C//DTD SVG 1.1//EN" "http://www.w3.org/Graphics/SVG/1.1/DTD/svg11.dtd">
<svg width="100%" height="100%" viewBox="0 0 64 59" version="1.1" xmlns="http://www.w3.org/2000/svg" xmlns:xlink="http://www.w3.org/1999/xlink" xml:space="preserve" style="fill-rule:evenodd;clip-rule:evenodd;stroke-linejoin:round;stroke-miterlimit:1.41421;">
    <g transform="matrix(3.07264,1.34059e-18,1.34059e-18,3.06717,-0.205867,-2.30037)">
        <path d="M0.426,19.627C0.65,19.874 0.942,19.986 1.279,19.986L19.684,19.986C20.021,19.986 20.313,19.874 20.537,19.627C20.784,19.402 20.896,19.111 20.896,18.774L20.896,14.779C20.896,14.442 20.784,14.15 20.537,13.926C20.313,13.679 20.021,13.567 19.684,13.567L13.893,13.567L12.188,15.272C11.694,15.744 11.133,15.968 10.482,15.968C9.831,15.968 9.27,15.744 8.776,15.272L7.092,13.567L1.279,13.567C0.942,13.567 0.65,13.679 0.426,13.926C0.179,14.15 0.067,14.442 0.067,14.779L0.067,18.774C0.067,19.111 0.179,19.402 0.426,19.627ZM4.309,8.516L9.92,14.128C10.078,14.285 10.257,14.375 10.482,14.375C10.706,14.375 10.886,14.285 11.043,14.128L16.654,8.516C16.901,8.269 16.968,7.978 16.834,7.641C16.677,7.304 16.43,7.147 16.093,7.147L12.883,7.147L12.883,1.536C12.883,1.334 12.794,1.132 12.636,0.974C12.479,0.817 12.3,0.75 12.075,0.75L8.888,0.75C8.664,0.75 8.484,0.817 8.327,0.974C8.17,1.132 8.08,1.334 8.08,1.536L8.08,7.147L4.87,7.147C4.534,7.147 4.287,7.304 4.13,7.641C3.995,7.978 4.062,8.269 4.309,8.516ZM15.285,16.776C15.509,16.776 15.689,16.866 15.846,17.023C16.003,17.18 16.093,17.36 16.093,17.584C16.093,17.809 16.003,17.988 15.846,18.145C15.689,18.303 15.509,18.392 15.285,18.392C15.083,18.392 14.881,18.303 14.724,18.145C14.567,17.988 14.499,17.809 14.499,17.584C14.499,17.36 14.567,17.18 14.724,17.023C14.881,16.866 15.083,16.776 15.285,16.776ZM18.495,16.776C18.719,16.776 18.899,16.866 19.056,17.023C19.213,17.18 19.303,17.36 19.303,17.584C19.303,17.809 19.213,17.988 19.056,18.145C18.899,18.303 18.719,18.392 18.495,18.392C18.27,18.392 18.091,18.303 17.934,18.145C17.776,17.988 17.687,17.809 17.687,17.584C17.687,17.36 17.776,17.18 17.934,17.023C18.091,16.866 18.27,16.776 18.495,16.776Z" style="fill:#b3b3b3;"/>
    </g>
</svg>
