<?xml version="1.0" encoding="UTF-8" standalone="no"?>
<!DOCTYPE svg PUBLIC "-//W3C//DTD SVG 1.1//EN" "http://www.w3.org/Graphics/SVG/1.1/DTD/svg11.dtd">
<svg width="100%" height="100%" viewBox="0 0 50 50" version="1.1" xmlns="http://www.w3.org/2000/svg" xmlns:xlink="http://www.w3.org/1999/xlink" xml:space="preserve" style="fill-rule:evenodd;clip-rule:evenodd;stroke-linecap:round;stroke-miterlimit:10;">
    <path d="M45.065,0L45.129,0.002L45.193,0.004L45.257,0.007L45.321,0.01L45.385,0.015L45.448,0.02L45.511,0.026L45.574,0.033L45.637,0.04L45.699,0.049L45.761,0.058L45.823,0.068L45.885,0.078L45.946,0.09L46.008,0.102L46.069,0.115L46.129,0.128L46.19,0.143L46.25,0.158L46.309,0.174L46.369,0.19L46.428,0.207L46.487,0.225L46.545,0.244L46.604,0.263L46.662,0.283L46.719,0.304L46.776,0.326L46.833,0.348L46.946,0.394L47.058,0.443L47.168,0.494L47.276,0.548L47.383,0.605L47.489,0.664L47.593,0.725L47.695,0.789L47.796,0.856L47.894,0.924L47.992,0.995L48.087,1.069L48.18,1.144L48.272,1.222L48.362,1.301L48.45,1.383L48.536,1.467L48.619,1.553L48.701,1.641L48.781,1.731L48.858,1.822L48.934,1.916L49.007,2.011L49.078,2.109L49.146,2.208L49.212,2.308L49.276,2.41L49.338,2.514L49.397,2.62L49.453,2.727L49.507,2.835L49.558,2.945L49.607,3.057L49.653,3.17L49.675,3.226L49.697,3.284L49.717,3.341L49.737,3.399L49.757,3.457L49.775,3.516L49.793,3.575L49.81,3.634L49.827,3.693L49.843,3.753L49.858,3.813L49.872,3.873L49.886,3.934L49.898,3.994L49.911,4.055L49.922,4.117L49.933,4.178L49.942,4.24L49.951,4.302L49.96,4.365L49.967,4.427L49.974,4.49L49.98,4.553L49.985,4.616L49.99,4.68L49.993,4.743L49.996,4.807L49.998,4.871L50,4.936L50,5L50,45L50,45.065L49.998,45.129L49.996,45.193L49.993,45.257L49.99,45.321L49.985,45.385L49.98,45.448L49.974,45.511L49.967,45.574L49.96,45.637L49.951,45.699L49.942,45.761L49.932,45.823L49.922,45.885L49.91,45.946L49.898,46.008L49.885,46.069L49.872,46.129L49.857,46.19L49.842,46.25L49.826,46.309L49.81,46.369L49.793,46.428L49.775,46.487L49.756,46.545L49.737,46.604L49.717,46.662L49.696,46.719L49.674,46.776L49.652,46.833L49.606,46.946L49.557,47.058L49.506,47.168L49.452,47.276L49.395,47.383L49.336,47.489L49.275,47.593L49.211,47.695L49.144,47.796L49.076,47.894L49.005,47.992L48.931,48.087L48.856,48.18L48.778,48.272L48.699,48.362L48.617,48.45L48.533,48.536L48.447,48.619L48.359,48.701L48.269,48.781L48.178,48.858L48.084,48.934L47.989,49.007L47.891,49.078L47.792,49.146L47.692,49.212L47.59,49.276L47.486,49.338L47.38,49.397L47.273,49.453L47.165,49.507L47.055,49.558L46.943,49.607L46.83,49.653L46.774,49.675L46.716,49.697L46.659,49.717L46.601,49.737L46.543,49.757L46.484,49.775L46.425,49.793L46.366,49.81L46.307,49.827L46.247,49.843L46.187,49.858L46.127,49.872L46.066,49.886L46.006,49.898L45.945,49.911L45.883,49.922L45.822,49.933L45.76,49.942L45.698,49.951L45.635,49.96L45.573,49.967L45.51,49.974L45.447,49.98L45.384,49.985L45.32,49.99L45.257,49.993L45.193,49.996L45.129,49.998L45.064,50L45,50L5,50L4.935,50L4.871,49.998L4.807,49.996L4.743,49.993L4.679,49.99L4.615,49.985L4.552,49.98L4.489,49.974L4.426,49.967L4.363,49.96L4.301,49.951L4.239,49.942L4.177,49.932L4.115,49.922L4.054,49.91L3.992,49.898L3.931,49.885L3.871,49.872L3.811,49.857L3.75,49.842L3.691,49.826L3.631,49.81L3.572,49.793L3.513,49.775L3.455,49.756L3.396,49.737L3.338,49.717L3.281,49.696L3.224,49.674L3.167,49.652L3.054,49.606L2.942,49.557L2.832,49.506L2.724,49.452L2.617,49.395L2.511,49.336L2.407,49.275L2.305,49.211L2.204,49.144L2.106,49.076L2.008,49.005L1.913,48.931L1.82,48.856L1.728,48.778L1.638,48.699L1.55,48.617L1.464,48.533L1.381,48.447L1.299,48.359L1.219,48.269L1.142,48.178L1.066,48.084L0.993,47.989L0.922,47.891L0.854,47.792L0.788,47.692L0.724,47.59L0.662,47.486L0.603,47.38L0.547,47.273L0.493,47.165L0.442,47.055L0.393,46.943L0.347,46.83L0.325,46.774L0.303,46.716L0.283,46.659L0.263,46.601L0.243,46.543L0.225,46.484L0.207,46.425L0.19,46.366L0.173,46.307L0.157,46.247L0.142,46.187L0.128,46.127L0.114,46.066L0.102,46.006L0.089,45.945L0.078,45.883L0.067,45.822L0.058,45.76L0.049,45.698L0.04,45.635L0.033,45.573L0.026,45.51L0.02,45.447L0.015,45.384L0.01,45.32L0.007,45.257L0.004,45.193L0.002,45.129L0,45.064L0,45L0,5L0,4.935L0.002,4.871L0.004,4.807L0.007,4.743L0.01,4.679L0.015,4.615L0.02,4.552L0.026,4.489L0.033,4.426L0.04,4.363L0.049,4.301L0.058,4.239L0.068,4.177L0.078,4.115L0.09,4.054L0.102,3.992L0.115,3.931L0.128,3.871L0.143,3.811L0.158,3.75L0.174,3.691L0.19,3.631L0.207,3.572L0.225,3.513L0.244,3.455L0.263,3.396L0.283,3.338L0.304,3.281L0.326,3.224L0.348,3.167L0.394,3.054L0.443,2.942L0.494,2.832L0.548,2.724L0.605,2.617L0.664,2.511L0.725,2.407L0.789,2.305L0.856,2.204L0.924,2.106L0.995,2.008L1.069,1.913L1.144,1.82L1.222,1.728L1.301,1.638L1.383,1.55L1.467,1.464L1.553,1.381L1.641,1.299L1.731,1.219L1.822,1.142L1.916,1.066L2.011,0.993L2.109,0.922L2.208,0.854L2.308,0.788L2.41,0.724L2.514,0.662L2.62,0.603L2.727,0.547L2.835,0.493L2.945,0.442L3.057,0.393L3.17,0.347L3.226,0.325L3.284,0.303L3.341,0.283L3.399,0.263L3.457,0.243L3.516,0.225L3.575,0.207L3.634,0.19L3.693,0.173L3.753,0.157L3.813,0.142L3.873,0.128L3.934,0.114L3.994,0.102L4.055,0.089L4.117,0.078L4.178,0.067L4.24,0.058L4.302,0.049L4.365,0.04L4.427,0.033L4.49,0.026L4.553,0.02L4.616,0.015L4.68,0.01L4.743,0.007L4.807,0.004L4.871,0.002L4.936,0L5,0L45,0L45.065,0ZM5.008,2.667L4.969,2.667L4.939,2.667L4.909,2.668L4.879,2.67L4.849,2.672L4.819,2.674L4.789,2.676L4.76,2.679L4.731,2.682L4.701,2.686L4.672,2.689L4.644,2.694L4.615,2.698L4.586,2.703L4.558,2.708L4.53,2.714L4.502,2.72L4.474,2.726L4.446,2.733L4.418,2.74L4.39,2.747L4.363,2.755L4.336,2.763L4.308,2.771L4.281,2.78L4.255,2.788L4.228,2.798L4.201,2.807L4.175,2.817L4.156,2.824L4.096,2.849L4.044,2.872L3.993,2.895L3.943,2.921L3.893,2.947L3.844,2.974L3.795,3.003L3.747,3.033L3.7,3.064L3.654,3.096L3.608,3.129L3.563,3.164L3.519,3.199L3.476,3.236L3.434,3.273L3.392,3.312L3.352,3.351L3.312,3.392L3.274,3.433L3.236,3.475L3.2,3.518L3.164,3.562L3.13,3.607L3.097,3.653L3.064,3.699L3.033,3.746L3.004,3.794L2.975,3.842L2.947,3.892L2.921,3.941L2.896,3.992L2.872,4.043L2.849,4.095L2.825,4.154L2.818,4.173L2.808,4.2L2.798,4.226L2.789,4.253L2.78,4.28L2.771,4.307L2.763,4.334L2.755,4.361L2.747,4.389L2.74,4.416L2.733,4.444L2.726,4.472L2.72,4.5L2.714,4.528L2.709,4.557L2.703,4.585L2.698,4.614L2.694,4.642L2.689,4.671L2.686,4.7L2.682,4.73L2.679,4.759L2.676,4.789L2.674,4.818L2.672,4.848L2.67,4.878L2.668,4.908L2.667,4.939L2.667,4.969L2.667,5.008L2.667,44.992L2.667,45.031L2.667,45.061L2.668,45.091L2.67,45.121L2.672,45.151L2.674,45.181L2.676,45.211L2.679,45.24L2.682,45.269L2.686,45.299L2.689,45.328L2.694,45.356L2.698,45.385L2.703,45.414L2.708,45.442L2.714,45.47L2.72,45.498L2.726,45.526L2.733,45.554L2.74,45.582L2.747,45.61L2.755,45.637L2.763,45.664L2.771,45.692L2.78,45.719L2.788,45.745L2.798,45.772L2.807,45.799L2.817,45.825L2.824,45.844L2.849,45.904L2.872,45.956L2.895,46.007L2.921,46.057L2.947,46.107L2.974,46.156L3.003,46.205L3.033,46.253L3.064,46.3L3.096,46.346L3.129,46.392L3.164,46.437L3.199,46.481L3.236,46.524L3.273,46.566L3.312,46.608L3.351,46.648L3.392,46.688L3.433,46.726L3.475,46.764L3.518,46.8L3.562,46.836L3.607,46.87L3.653,46.903L3.699,46.935L3.746,46.967L3.794,46.996L3.842,47.025L3.892,47.053L3.941,47.079L3.992,47.104L4.043,47.128L4.095,47.151L4.154,47.175L4.173,47.182L4.2,47.192L4.226,47.202L4.253,47.211L4.28,47.22L4.307,47.229L4.334,47.237L4.361,47.245L4.389,47.253L4.416,47.26L4.444,47.267L4.472,47.274L4.5,47.28L4.528,47.286L4.557,47.291L4.585,47.297L4.614,47.302L4.642,47.306L4.671,47.311L4.7,47.314L4.73,47.318L4.759,47.321L4.788,47.324L4.818,47.326L4.848,47.328L4.878,47.33L4.908,47.332L4.939,47.333L4.969,47.333L5.008,47.333L44.991,47.333L45.031,47.333L45.061,47.333L45.091,47.332L45.121,47.33L45.151,47.329L45.181,47.326L45.211,47.324L45.24,47.321L45.269,47.318L45.299,47.314L45.327,47.311L45.356,47.306L45.385,47.302L45.414,47.297L45.442,47.292L45.47,47.286L45.498,47.28L45.526,47.274L45.554,47.267L45.582,47.26L45.61,47.253L45.637,47.245L45.664,47.237L45.691,47.229L45.719,47.22L45.745,47.212L45.772,47.202L45.799,47.193L45.825,47.183L45.844,47.176L45.904,47.151L45.956,47.128L46.007,47.105L46.057,47.079L46.107,47.053L46.156,47.026L46.205,46.997L46.253,46.967L46.3,46.936L46.346,46.904L46.392,46.871L46.437,46.836L46.481,46.801L46.524,46.764L46.566,46.727L46.608,46.688L46.648,46.649L46.688,46.608L46.726,46.567L46.764,46.525L46.8,46.482L46.836,46.438L46.87,46.393L46.903,46.347L46.936,46.301L46.967,46.254L46.996,46.206L47.025,46.158L47.053,46.108L47.079,46.059L47.104,46.008L47.128,45.957L47.151,45.906L47.175,45.846L47.182,45.827L47.192,45.8L47.202,45.774L47.211,45.747L47.22,45.72L47.229,45.693L47.237,45.666L47.245,45.639L47.253,45.611L47.26,45.584L47.267,45.556L47.274,45.528L47.28,45.5L47.286,45.472L47.291,45.443L47.297,45.415L47.302,45.386L47.306,45.358L47.311,45.329L47.314,45.3L47.318,45.27L47.321,45.241L47.324,45.212L47.326,45.182L47.328,45.152L47.33,45.122L47.332,45.092L47.333,45.061L47.333,45.031L47.333,44.992L47.333,5.009L47.333,4.969L47.333,4.939L47.332,4.909L47.33,4.879L47.329,4.849L47.326,4.819L47.324,4.789L47.321,4.76L47.318,4.731L47.314,4.701L47.311,4.673L47.306,4.644L47.302,4.615L47.297,4.586L47.292,4.558L47.286,4.53L47.28,4.502L47.274,4.474L47.267,4.446L47.26,4.418L47.253,4.39L47.245,4.363L47.237,4.336L47.229,4.309L47.22,4.281L47.212,4.255L47.202,4.228L47.193,4.201L47.183,4.175L47.176,4.156L47.151,4.096L47.128,4.044L47.105,3.993L47.079,3.943L47.053,3.893L47.026,3.844L46.997,3.795L46.967,3.747L46.936,3.7L46.904,3.654L46.871,3.608L46.836,3.563L46.801,3.519L46.764,3.476L46.727,3.434L46.688,3.392L46.649,3.352L46.608,3.312L46.567,3.274L46.525,3.236L46.482,3.2L46.438,3.164L46.393,3.13L46.347,3.097L46.301,3.064L46.254,3.033L46.206,3.004L46.158,2.975L46.108,2.947L46.059,2.921L46.008,2.896L45.957,2.872L45.905,2.849L45.846,2.825L45.827,2.818L45.8,2.808L45.774,2.798L45.747,2.789L45.72,2.78L45.693,2.771L45.666,2.763L45.639,2.755L45.611,2.747L45.584,2.74L45.556,2.733L45.528,2.726L45.5,2.72L45.472,2.714L45.443,2.709L45.415,2.703L45.386,2.698L45.358,2.694L45.329,2.689L45.3,2.686L45.27,2.682L45.241,2.679L45.211,2.676L45.182,2.674L45.152,2.672L45.122,2.67L45.092,2.668L45.061,2.667L45.031,2.667L44.992,2.667L5.008,2.667Z" style="fill:#b3b3b3;"/>
    <g transform="matrix(1,0,0,1,0,1)">
        <path d="M11,38L39,10" style="fill:none;stroke-width:2px;stroke:#b3b3b3;"/>
    </g>
    <path d="M26.611,39.278L39.339,26.55" style="fill:none;stroke-width:2px;stroke:#b3b3b3;"/>
    <path d="M10.5,23.167L23.228,10.439" style="fill:none;stroke-width:2px;stroke:#b3b3b3;"/>
</svg>
