<?xml version="1.0" encoding="UTF-8" standalone="no"?>
<!DOCTYPE svg PUBLIC "-//W3C//DTD SVG 1.1//EN" "http://www.w3.org/Graphics/SVG/1.1/DTD/svg11.dtd">
<svg width="100%" height="100%" viewBox="0 0 58 59" version="1.1" xmlns="http://www.w3.org/2000/svg" xmlns:xlink="http://www.w3.org/1999/xlink" xml:space="preserve" style="fill-rule:evenodd;clip-rule:evenodd;stroke-linejoin:round;stroke-miterlimit:1.41421;">
    <g id="ic_gb_crop" transform="matrix(1.31815,-6.49914e-32,-6.49914e-32,1.31815,-3.95443,-3.953)">
        <path d="M8.813,3C8.336,3.091 7.991,3.515 8,4L8,8L4,8C3.969,7.999 3.937,7.999 3.906,8C3.394,8.048 2.998,8.485 3,9L3,15C3,15.549 3.451,16 4,16L8,16L8,41C8,41.549 8.451,42 9,42L34,42L34,46C34,46.549 34.451,47 35,47L41,47C41.549,47 42,46.549 42,46L42,42L46,42C46.549,42 47,41.549 47,41L47,35C47,34.451 46.549,34 46,34L16,34L16,4C16,3.451 15.549,3 15,3L9,3C8.969,2.999 8.937,2.999 8.906,3C8.875,2.999 8.844,2.999 8.813,3ZM10,5L14,5L14,35C14,35.549 14.451,36 15,36L45,36L45,40L10,40L10,5ZM17.813,8C17.299,8.048 16.902,8.484 16.902,9C16.902,9.551 17.355,10.004 17.906,10.004C17.938,10.004 17.969,10.003 18,10L40,10L40,32C40,32.005 40,32.009 40,32.014C40,32.563 40.451,33.014 41,33.014C41.549,33.014 42,32.563 42,32.014C42,32.009 42,32.005 42,32L42,9C42,8.451 41.549,8 41,8L18,8C17.969,7.999 17.937,7.999 17.906,8C17.875,7.999 17.844,7.999 17.813,8ZM5,10L8,10L8,14L5,14L5,10ZM17.813,14C17.299,14.048 16.902,14.484 16.902,15C16.902,15.551 17.355,16.004 17.906,16.004C17.938,16.004 17.969,16.003 18,16L34,16L34,32C34,32.005 34,32.009 34,32.014C34,32.563 34.451,33.014 35,33.014C35.549,33.014 36,32.563 36,32.014C36,32.009 36,32.005 36,32L36,15C36,14.451 35.549,14 35,14L18,14C17.969,13.999 17.937,13.999 17.906,14C17.875,13.999 17.844,13.999 17.813,14ZM36,42L40,42L40,45L36,45L36,42Z" style="fill:#b3b3b3;fill-rule:nonzero;"/>
    </g>
</svg>
