<?xml version="1.0" encoding="UTF-8" standalone="no"?>
<!DOCTYPE svg PUBLIC "-//W3C//DTD SVG 1.1//EN" "http://www.w3.org/Graphics/SVG/1.1/DTD/svg11.dtd">
<svg width="100%" height="100%" viewBox="0 0 60 53" version="1.1" xmlns="http://www.w3.org/2000/svg" xmlns:xlink="http://www.w3.org/1999/xlink" xml:space="preserve" style="fill-rule:evenodd;clip-rule:evenodd;stroke-linejoin:round;stroke-miterlimit:1.41421;">
    <g transform="matrix(2.49584,-9.86076e-32,0,2.49584,0,0)">
        <path d="M0.584,17.059C0.988,17.44 1.459,17.642 1.998,17.642L8.822,17.642C8.822,17.957 8.754,18.293 8.62,18.63C8.485,18.944 8.35,19.236 8.216,19.505C8.081,19.752 8.014,19.932 8.014,20.044C8.014,20.268 8.081,20.448 8.238,20.605C8.418,20.762 8.597,20.852 8.822,20.852L15.219,20.852C15.443,20.852 15.623,20.762 15.802,20.605C15.959,20.448 16.027,20.268 16.027,20.044C16.027,19.932 15.959,19.752 15.825,19.505C15.69,19.258 15.555,18.944 15.421,18.608C15.286,18.271 15.219,17.957 15.219,17.642L22.042,17.642C22.581,17.642 23.052,17.44 23.456,17.059C23.838,16.655 24.04,16.183 24.04,15.645L24.04,1.998C24.04,1.459 23.838,0.988 23.456,0.584C23.052,0.202 22.581,0 22.042,0L1.998,0C1.459,0 0.988,0.202 0.584,0.584C0.202,0.988 0,1.459 0,1.998L0,15.645C0,16.183 0.202,16.655 0.584,17.059ZM1.594,1.998C1.594,1.885 1.639,1.796 1.706,1.706C1.796,1.639 1.886,1.594 1.998,1.594L22.042,1.594C22.154,1.594 22.244,1.639 22.334,1.706C22.401,1.796 22.446,1.885 22.446,1.998L22.446,12.435C22.446,12.547 22.401,12.637 22.334,12.727C22.244,12.794 22.154,12.839 22.042,12.839L1.998,12.839C1.886,12.839 1.796,12.794 1.706,12.727C1.639,12.637 1.594,12.547 1.594,12.435L1.594,1.998Z" style="fill:#b3b3b3;"/>
    </g>
</svg>
