<?xml version="1.0" encoding="UTF-8" standalone="no"?>
<!DOCTYPE svg PUBLIC "-//W3C//DTD SVG 1.1//EN" "http://www.w3.org/Graphics/SVG/1.1/DTD/svg11.dtd">
<svg width="100%" height="100%" viewBox="0 0 50 50" version="1.1" xmlns="http://www.w3.org/2000/svg" xmlns:xlink="http://www.w3.org/1999/xlink" xml:space="preserve" style="fill-rule:evenodd;clip-rule:evenodd;stroke-linejoin:round;stroke-miterlimit:1.41421;">
    <path d="M25.162,0.001C38.894,0.087 50,11.247 50,25C50,38.753 38.894,49.913 25.162,49.999L25,50C11.193,50 0,38.807 0,25C0,11.193 11.193,0 25,0L25.162,0.001ZM25,47C37.15,47 47,37.15 47,25C47,12.85 37.15,3 25,3C12.85,3 3,12.85 3,25C3,37.15 12.85,47 25,47ZM26,28L12,28L12,26L24,26L24,8L26,8L26,28Z" style="fill:#b3b3b3;"/>
</svg>
