<?xml version="1.0" encoding="UTF-8" standalone="no"?>
<svg width="391px" height="205px" viewBox="0 0 391 205" version="1.1" xmlns="http://www.w3.org/2000/svg" xmlns:xlink="http://www.w3.org/1999/xlink" xmlns:sketch="http://www.bohemiancoding.com/sketch/ns">
    <!-- Generator: sketchtool 3.5.2 (25235) - http://www.bohemiancoding.com/sketch -->
    <title>Group 3</title>
    <desc>Created with sketchtool.</desc>
    <defs>
        <rect id="path-1" x="0" y="0" width="182.693333" height="157.933941" rx="12"></rect>
    </defs>
    <g id="404-page" stroke="none" stroke-width="1" fill="none" fill-rule="evenodd" sketch:type="MSPage">
        <g id="404-page-" sketch:type="MSArtboardGroup" transform="translate(-533.000000, -162.000000)">
            <g id="Group-3" sketch:type="MSLayerGroup" transform="translate(521.000000, 160.000000)">
                <path d="M-18.7765921,94.7628981 C-18.7765921,94.7628981 33.2986246,60.1602583 65.2299112,56.6578612 C97.1611978,53.1554641 115.927601,62.2816746 122.517018,65.8673465 C129.106434,69.4530185 136.35411,81.3495457 137.527729,88.2707559 C138.701348,95.1919661 140.836683,114.21813 124.831211,106.84774 C108.82574,99.4773494 126.146549,84.6266091 112.661106,74.8436982 C99.1756632,65.0607873 73.8489394,64.8162061 60.712002,66.8248464 C47.5750645,68.8334867 27.9603969,74.366652 3.61726307,98.9446008 C-20.7258707,123.52255 -12.3362511,102.133287 -12.3362511,102.133287 L-18.7765921,94.7628981 Z" id="Path-14" fill="#B7B7B7" sketch:type="MSShapeGroup" transform="translate(59.775722, 83.316306) scale(-1, -1) rotate(-296.000000) translate(-59.775722, -83.316306) "></path>
                <g id="Group-2" transform="translate(119.087569, 69.158713) rotate(-28.000000) translate(-119.087569, -69.158713) translate(78.616812, 30.473431)" sketch:type="MSShapeGroup">
                    <path d="M0.663832099,76.904968 C0.663832099,76.904968 14.2756322,59.3576197 15.8808528,53.1733232 C17.4860734,46.9890267 16.639865,35.8638004 16.639865,35.8638004 L39.7622891,32.0127 C39.7622891,32.0127 50.6271734,50.980264 69.7137277,59.2123626 C88.8002821,67.4444612 0.663832099,76.904968 0.663832099,76.904968 L0.663832099,76.904968 Z" id="Path-9" fill="#857C7C"></path>
                    <path d="M15.3283295,35.7840363 C12.8768656,29.5271118 30.6204816,19.6943366 43.3292113,10.8258221 C56.037941,1.95730763 78.099704,-5.75520417 80.1896239,7.55804261 C81.6668233,16.9681257 71.8135,21.5378413 59.5592773,26.688862 C48.7651846,31.226122 17.7797935,42.0409608 15.3283295,35.7840363 L15.3283295,35.7840363 Z" id="Path-10" fill="#ACACAC"></path>
                    <path d="M68.7405149,10.4771402 C67.7749724,7.50627005 63.0776441,6.36950799 58.2487384,7.93811114 C53.4198327,9.50671429 50.2879581,13.1866845 51.2535006,16.1575547 C52.2190431,19.1284249 56.9163714,20.265187 61.7452771,18.6965838 C66.5741828,17.1279807 69.7060574,13.4480105 68.7405149,10.4771402 L68.7405149,10.4771402 L68.7405149,10.4771402 Z" id="Oval-1" fill="#F7CCFB"></path>
                    <path d="M75.0153988,14.4018173 C74.6198507,13.1847584 72.9351743,12.6412206 71.2525689,13.1877917 C69.5699634,13.7343628 68.5265973,15.1640674 68.9221454,16.3811263 C69.3176935,17.5981852 71.0023698,18.141723 72.6849753,17.5951519 C74.3675808,17.0485809 75.4109469,15.6188762 75.0153988,14.4018173 L75.0153988,14.4018173 L75.0153988,14.4018173 Z" id="Oval-1-Copy" fill="#F7CCFB"></path>
                    <path d="M77.9681426,8.49784805 C77.5725945,7.28078911 75.8879182,6.73725132 74.2053127,7.28382241 C72.5227072,7.8303935 71.4793411,9.26009812 71.8748892,10.4771571 C72.2704373,11.694216 73.9551137,12.2377538 75.6377191,11.6911827 C77.3203246,11.1446116 78.3636908,9.71490698 77.9681426,8.49784805 L77.9681426,8.49784805 L77.9681426,8.49784805 Z" id="Oval-1-Copy-2" fill="#F7CCFB"></path>
                    <path d="M73.0469029,3.57787367 C72.6513548,2.36081473 70.9666785,1.81727694 69.284073,2.36384803 C67.6014675,2.91041912 66.5581014,4.34012374 66.9536495,5.55718268 C67.3491976,6.77424161 69.033874,7.3177794 70.7164794,6.77120831 C72.3990849,6.22463722 73.442451,4.7949326 73.0469029,3.57787367 L73.0469029,3.57787367 L73.0469029,3.57787367 Z" id="Oval-1-Copy-3" fill="#F7CCFB"></path>
                </g>
                <path d="M79.4396538,140.988752 L79.4396538,232.359772 C79.4396538,232.359772 205.061561,243.558172 205.061561,232.359778 C205.061561,221.161383 197.152842,215.008776 197.152839,197.952611 C197.152837,180.896447 217.616717,113.438284 142.250609,85.5143448 C135.801517,83.5658904 127.445404,83.7149109 118.944863,84.8634407 C113.449332,71.4327261 102.837698,68.4216831 102.837698,68.4216831 C102.837698,68.4216831 105.868656,61.8578377 110.608066,55.683791 C115.347476,49.5097443 129.454491,33.7103148 130.439412,31.7629511 C131.424334,29.8155873 129.933953,21.9067148 124.245065,21.1989164 C118.556178,20.491118 115.335094,20.7567208 107.70721,29.1286215 C100.079325,37.5005222 103.363919,38.0362919 99.3745462,43.4200578 C95.3851734,48.8038238 79.2343115,76.0908881 79.2343115,76.0908881 L79.4396538,140.988752 Z" id="Path-7" fill="#D8D8D8" sketch:type="MSShapeGroup" transform="translate(142.147936, 129.142304) scale(-1, -1) rotate(-270.000000) translate(-142.147936, -129.142304) "></path>
                <path d="M144.678883,113.003864 C144.678883,113.003864 165.744475,121.316662 204.020846,121.316662 C242.297217,121.316661 263.499543,113.003864 263.499543,113.003864 L261.448849,150.264907 L152.94298,151.816796 C152.94298,151.816796 144.678883,132.640402 144.678883,124.863157 C144.678883,117.085912 144.678883,113.003864 144.678883,113.003864 Z" id="Path-15" fill="#EDEDED" sketch:type="MSShapeGroup" transform="translate(204.089213, 132.410330) scale(-1, -1) rotate(-270.000000) translate(-204.089213, -132.410330) "></path>
                <rect id="Rectangle-1-Copy" fill="#D9F5FB" sketch:type="MSShapeGroup" transform="translate(255.949886, 107.413333) scale(-1, -1) rotate(-270.000000) translate(-255.949886, -107.413333) " x="171.629886" y="49.5317844" width="168.64" height="115.763098" rx="12"></rect>
                <path d="M108.842936,107 L294.01627,107" id="Line" stroke="#B2DDEE" stroke-width="8" stroke-linecap="round" sketch:type="MSShapeGroup" transform="translate(201.429603, 107.000000) scale(-1, -1) rotate(-270.000000) translate(-201.429603, -107.000000) "></path>
                <path d="M125.568568,107 L310.741901,107" id="Line-Copy" stroke="#B2DDEE" stroke-width="8" stroke-linecap="round" sketch:type="MSShapeGroup" transform="translate(218.155235, 107.000000) scale(-1, -1) rotate(-270.000000) translate(-218.155235, -107.000000) "></path>
                <path d="M141.2942,107 L326.467533,107" id="Line-Copy-2" stroke="#B2DDEE" stroke-width="8" stroke-linecap="round" sketch:type="MSShapeGroup" transform="translate(233.880866, 107.000000) scale(-1, -1) rotate(-270.000000) translate(-233.880866, -107.000000) "></path>
                <g id="Path-4" transform="translate(320.033030, 107.000000) scale(-1, -1) rotate(-270.000000) translate(-320.033030, -107.000000) translate(228.686363, 28.033030)">
                    <mask id="mask-2" sketch:name="Mask" fill="white">
                        <use xlink:href="#path-1"></use>
                    </mask>
                    <use id="Mask" fill="#D9F4FB" sketch:type="MSShapeGroup" xlink:href="#path-1"></use>
                    <path d="M-57.8666667,26.5407959 C-57.8666667,26.5407959 10.2245203,9.92255044 49.574719,9.92255125 C88.9249178,9.92255207 151.810661,25.811011 186.363782,17.8667811 C220.916903,9.92255125 240.243795,15.016152 240.243795,15.016152 L230.747119,186.691347 L34.4288755,208.141066 L-35.6660644,174.50245 L-57.8666667,26.5407959 Z" fill="#E4C0A2" sketch:type="MSShapeGroup" mask="url(#mask-2)"></path>
                </g>
                <rect id="Rectangle-3" fill="#D53842" sketch:type="MSShapeGroup" transform="translate(329.493667, 167.620970) scale(-1, -1) rotate(-270.000000) translate(-329.493667, -167.620970) " x="298.76797" y="119.710446" width="61.4513939" height="95.8210468"></rect>
                <rect id="Rectangle-3-Copy" fill="#1D69CF" sketch:type="MSShapeGroup" transform="translate(329.493667, 107.000000) scale(-1, -1) rotate(-270.000000) translate(-329.493667, -107.000000) " x="298.76797" y="59.0894766" width="61.4513939" height="95.8210468"></rect>
                <rect id="Rectangle-3-Copy-2" fill="#009F4A" sketch:type="MSShapeGroup" transform="translate(329.493667, 46.379030) scale(-1, -1) rotate(-270.000000) translate(-329.493667, -46.379030) " x="298.76797" y="-1.53149312" width="61.4513939" height="95.8210468"></rect>
                <path d="M267.504086,-2.69480996 C269.52815,-5.11042594 293.689092,-7.05211422 300.931867,-2.03570558 C308.174642,2.98070307 304.621005,18.8251061 304.621005,40.6977588 C304.621005,62.5704114 304.394756,82.879234 302.539075,80.819759 C300.683394,78.760284 300.931868,57.5923846 300.931868,45.5417153 C300.931868,33.4910461 303.329821,9.77758942 294.168572,3.89723262 C285.007324,-1.98312419 265.480022,-0.279193969 267.504086,-2.69480996 Z" id="Path-5" opacity="0.539295709" fill="#FFFFFF" sketch:type="MSShapeGroup" transform="translate(286.425369, 37.895773) scale(-1, -1) rotate(-270.000000) translate(-286.425369, -37.895773) "></path>
                <path d="M387.669425,16.5388635 C389.160559,18.2089208 390.067557,32.8329259 387.669425,39.4318947 C385.271293,46.0308634 371.544779,44.0629546 370.527703,43.1653722 C369.510627,42.2677898 378.634482,41.5820525 383.076651,35.3787153 C387.51882,29.175378 386.178291,14.8688063 387.669425,16.5388635 Z" id="Path-6" opacity="0.618353545" fill="#FFFFFF" sketch:type="MSShapeGroup" transform="translate(379.798219, 30.277665) scale(-1, -1) rotate(-270.000000) translate(-379.798219, -30.277665) "></path>
                <g id="Group" transform="translate(91.639564, 153.946537) rotate(-18.000000) translate(-91.639564, -153.946537) translate(37.139564, 125.446537)" sketch:type="MSShapeGroup">
                    <path d="M78.5024206,9.42445172 C78.5024206,9.42445172 94.9920261,22.3373103 85.8701412,46.109709 C76.7482564,69.8821077 60.9234365,76.3466667 60.9234365,76.3466667" id="Path-11" stroke="#979797" stroke-width="2" stroke-linecap="round" transform="translate(74.772037, 42.885559) scale(-1, -1) rotate(-270.000000) translate(-74.772037, -42.885559) "></path>
                    <path d="M7.20836498,16.1395232 C7.20836498,16.1395232 10.1336743,19.0272304 10.1336746,22.8597037" id="Path-12" stroke="#979797" stroke-linecap="round" transform="translate(8.671020, 19.499613) scale(-1, -1) rotate(-270.000000) translate(-8.671020, -19.499613) "></path>
                    <path d="M5.68751281,3.66037538 C5.68751281,3.66037538 7.68414854,5.50849916 7.68414854,10.5178068 C7.68414854,15.5271144 5.6875129,16.4101777 5.6875129,16.4101777" id="Path-12-Copy" stroke="#979797" stroke-linecap="round" transform="translate(6.685831, 10.035277) scale(-1, -1) rotate(-270.000000) translate(-6.685831, -10.035277) "></path>
                    <path d="M20.6587561,19.7580897 C20.6587561,19.7580897 25.3986046,15.2702847 31.1311543,9.75196547 C36.8637041,4.23364624 53.7892513,-5.43243416 57.8460754,-8.67993386 C61.9028995,-11.9274336 58.7649398,-20.3108679 58.764941,-20.3108679 C58.7649422,-20.3108679 69.5591401,-19.0078941 67.1920104,-9.13442641 C66.2445236,-5.18239127 57.6280985,-1.6506058 52.3506027,1.84074354 C47.0731068,5.33209288 41.9809816,8.39425078 38.8681564,10.6070253 C32.6694006,15.013456 28.0822902,19.7580897 28.0822902,19.7580897 C28.0822902,19.7580897 39.198817,31.3488304 39.198817,40.0949625 C39.198817,48.8410945 31.1311541,67.2573396 31.1311541,67.2573396 C31.1311541,67.2573396 34.3198642,50.0755717 30.1868436,37.4351166 C26.053823,24.7946615 20.6587561,19.7580897 20.6587561,19.7580897 Z" id="Path-17" fill="#EBEBEB" transform="translate(44.095033, 23.473236) scale(-1, -1) rotate(-270.000000) translate(-44.095033, -23.473236) "></path>
                </g>
            </g>
        </g>
    </g>
</svg>