<?xml version="1.0" standalone="no"?>
<!DOCTYPE svg PUBLIC "-//W3C//DTD SVG 1.1//EN" "http://www.w3.org/Graphics/SVG/1.1/DTD/svg11.dtd">
<svg width="100%" height="100%" viewBox="0 0 22 22" version="1.1" xmlns="http://www.w3.org/2000/svg" xmlns:xlink="http://www.w3.org/1999/xlink" xml:space="preserve" style="fill-rule:evenodd;clip-rule:evenodd;stroke-linejoin:round;stroke-miterlimit:1.41421;">
    <g transform="matrix(0.98013,0,0,0.98013,-0.257774,-0.513588)">
        <path style="fill:#000000;" d="M0.622,19.423C0.847,19.648 1.138,19.76 1.475,19.76L8.276,19.76L8.276,21.78C8.276,22.094 8.388,22.386 8.635,22.611C8.86,22.857 9.151,22.97 9.488,22.97L21.497,22.97C21.833,22.97 22.125,22.857 22.349,22.611C22.596,22.386 22.709,22.094 22.709,21.758L22.709,13.363C22.709,13.026 22.619,12.645 22.462,12.241C22.282,11.859 22.08,11.522 21.856,11.298L16.738,6.18C16.626,6.068 16.469,5.956 16.289,5.844L16.289,1.736C16.289,1.399 16.177,1.108 15.93,0.883C15.706,0.636 15.414,0.524 15.077,0.524L1.475,0.524C1.138,0.524 0.847,0.636 0.622,0.883C0.375,1.108 0.263,1.399 0.263,1.736L0.263,18.57C0.263,18.907 0.375,19.176 0.622,19.423ZM3.473,2.522C3.473,2.409 3.518,2.32 3.585,2.23C3.675,2.163 3.764,2.118 3.877,2.118L12.675,2.118C12.788,2.118 12.877,2.163 12.967,2.23C13.035,2.32 13.079,2.409 13.079,2.522L13.079,3.33C13.079,3.442 13.035,3.532 12.967,3.622C12.877,3.689 12.788,3.734 12.675,3.734L3.877,3.734C3.764,3.734 3.675,3.689 3.585,3.622C3.518,3.532 3.473,3.442 3.473,3.33L3.473,2.522ZM9.87,6.943L14.696,6.943L14.696,12.151C14.696,12.465 14.808,12.757 15.055,12.981C15.279,13.228 15.571,13.341 15.908,13.341L21.115,13.341L21.115,21.376L9.87,21.376L9.87,6.943ZM16.289,7.998L20.06,11.747L16.289,11.747L16.289,7.998Z" />
    </g>
</svg>
