<?xml version="1.0" encoding="UTF-8" standalone="no"?>
<!DOCTYPE svg PUBLIC "-//W3C//DTD SVG 1.1//EN" "http://www.w3.org/Graphics/SVG/1.1/DTD/svg11.dtd">
<svg width="100%" height="100%" viewBox="0 0 23 20" version="1.1" xmlns="http://www.w3.org/2000/svg" xmlns:xlink="http://www.w3.org/1999/xlink" xml:space="preserve" style="fill-rule:evenodd;clip-rule:evenodd;stroke-linejoin:round;stroke-miterlimit:1.41421;">
    <path style="fill:#ffffff;" id="ic-camera" d="M19.932,20L3.068,20C2.21,20 1.502,19.698 0.901,19.095C0.3,18.491 0,17.78 0,16.918L0,6.163C0,5.302 0.3,4.59 0.901,3.987C1.502,3.384 2.231,3.082 3.068,3.082L5.75,3.082L6.372,1.444C6.523,1.056 6.801,0.711 7.187,0.431C7.595,0.151 8.002,0 8.432,0L14.568,0C14.998,0 15.405,0.151 15.812,0.431C16.199,0.711 16.477,1.056 16.627,1.444L17.25,3.082L19.932,3.082C20.768,3.082 21.498,3.384 22.099,3.987C22.7,4.59 23,5.302 23,6.163L23,16.918C23,17.78 22.7,18.491 22.099,19.095C21.498,19.698 20.79,20 19.932,20ZM11.5,6C14.536,6 17,8.464 17,11.5C17,14.536 14.536,17 11.5,17C8.464,17 6,14.536 6,11.5C6,8.464 8.464,6 11.5,6ZM11.5,8C13.432,8 15,9.568 15,11.5C15,13.432 13.432,15 11.5,15C9.568,15 8,13.432 8,11.5C8,9.568 9.568,8 11.5,8Z" />
</svg>
