<?xml version="1.0" encoding="UTF-8" standalone="no"?>
<!DOCTYPE svg PUBLIC "-//W3C//DTD SVG 1.1//EN" "http://www.w3.org/Graphics/SVG/1.1/DTD/svg11.dtd">
<svg width="100%" height="100%" viewBox="0 0 12 12" version="1.1" xmlns="http://www.w3.org/2000/svg" xmlns:xlink="http://www.w3.org/1999/xlink" xml:space="preserve" style="fill-rule:evenodd;clip-rule:evenodd;stroke-linejoin:round;stroke-miterlimit:1.41421;">
    <path style="fill:#ffffff;" id="ic_minus_circle" d="M2.993,11.201C3.902,11.734 4.909,12 6,12C7.091,12 8.098,11.734 9.007,11.201C9.93,10.656 10.658,9.928 11.189,9.017C11.735,8.093 12,7.085 12,5.993C12,4.915 11.735,3.906 11.189,2.983C10.658,2.072 9.93,1.344 9.007,0.798C8.098,0.266 7.091,0 6,0C4.909,0 3.902,0.266 2.993,0.798C2.07,1.344 1.343,2.072 0.811,2.983C0.266,3.906 0,4.915 0,5.993C0,7.085 0.266,8.093 0.811,9.017C1.343,9.928 2.07,10.656 2.993,11.201ZM3,5.504C3,5.364 3.048,5.252 3.132,5.154C3.216,5.056 3.312,5 3.432,5L8.568,5C8.688,5 8.784,5.056 8.868,5.154C8.952,5.252 9,5.364 9,5.504L9,6.498C9,6.638 8.952,6.75 8.868,6.848C8.784,6.946 8.688,7.002 8.568,7.002L3.432,7.002C3.312,7.002 3.216,6.946 3.132,6.848C3.048,6.75 3,6.638 3,6.498L3,5.504Z" />
</svg>
