<?xml version="1.0" encoding="UTF-8" standalone="no"?>
<!DOCTYPE svg PUBLIC "-//W3C//DTD SVG 1.1//EN" "http://www.w3.org/Graphics/SVG/1.1/DTD/svg11.dtd">
<svg width="100%" height="100%" viewBox="0 0 12 12" version="1.1" xmlns="http://www.w3.org/2000/svg" xmlns:xlink="http://www.w3.org/1999/xlink" xml:space="preserve" style="fill-rule:evenodd;clip-rule:evenodd;stroke-linejoin:round;stroke-miterlimit:1.41421;">
    <path style="fill:#ffffff;" id="ic_pause" d="M0.154,11.86C0.252,11.958 0.364,12 0.504,12L4.495,12C4.634,12 4.747,11.958 4.845,11.86C4.943,11.762 4.999,11.636 4.999,11.51L4.999,0.504C4.999,0.364 4.943,0.252 4.845,0.154C4.747,0.056 4.634,0 4.495,0L0.504,0C0.364,0 0.252,0.056 0.154,0.154C0.056,0.252 0,0.364 0,0.504L0,11.51C0,11.636 0.056,11.762 0.154,11.86ZM7.155,11.86C7.253,11.958 7.365,12 7.505,12L11.496,12C11.636,12 11.748,11.958 11.846,11.86C11.944,11.762 12,11.636 12,11.51L12,0.504C12,0.364 11.944,0.252 11.846,0.154C11.748,0.056 11.636,0 11.496,0L7.505,0C7.365,0 7.253,0.056 7.155,0.154C7.057,0.252 7.001,0.364 7.001,0.504L7.001,11.51C7.001,11.636 7.057,11.762 7.155,11.86Z" />
</svg>
