<?xml version="1.0" encoding="UTF-8" standalone="no"?>
<!DOCTYPE svg PUBLIC "-//W3C//DTD SVG 1.1//EN" "http://www.w3.org/Graphics/SVG/1.1/DTD/svg11.dtd">
<svg width="100%" height="100%" viewBox="0 0 20 20" version="1.1" xmlns="http://www.w3.org/2000/svg" xmlns:xlink="http://www.w3.org/1999/xlink" xml:space="preserve" style="fill-rule:evenodd;clip-rule:evenodd;stroke-linejoin:round;stroke-miterlimit:1.41421;">
    <path id="ic_user" d="M4.005,14C4.005,12.353 4.589,10.941 5.758,9.765C6.927,8.588 8.33,8 9.966,8C11.603,8 13.017,8.588 14.21,9.765C15.402,10.941 15.998,12.353 15.998,14C15.998,14.066 15.997,14.132 15.995,14.198L15.995,19.477C14.203,19.794 12.314,19.972 10.362,19.992C10.255,19.997 10.146,20 10.036,20C9.933,20 9.829,19.998 9.728,19.993C7.743,19.978 5.822,19.799 4.002,19.477L4.002,14L4.005,14ZM13.5,3.502C13.5,2.541 13.152,1.716 12.456,1.03C11.76,0.343 10.935,0 9.979,0C9.024,0 8.206,0.343 7.523,1.03C6.841,1.716 6.5,2.541 6.5,3.502C6.5,4.463 6.848,5.287 7.544,5.974C8.24,6.66 9.066,7.003 10.021,7.003C10.976,7.003 11.794,6.66 12.477,5.974C13.159,5.287 13.5,4.463 13.5,3.502Z" style="fill:#939393;"/>
</svg>
